<?xml version="1.0" encoding="UTF-8" standalone="no"?>
<!DOCTYPE svg PUBLIC "-//W3C//DTD SVG 1.1//EN"
 "http://www.w3.org/Graphics/SVG/1.1/DTD/svg11.dtd">
<!-- Generated by graphviz version 5.0.0 (20220707.1540)
 -->
<!-- Title: dependencies Pages: 1 -->
<svg width="909pt" height="247pt"
 viewBox="0.00 0.00 909.00 246.80" xmlns="http://www.w3.org/2000/svg" xmlns:xlink="http://www.w3.org/1999/xlink">
<g id="graph0" class="graph" transform="scale(1 1) rotate(0) translate(4 242.8)">
<title>dependencies</title>
<polygon fill="white" stroke="transparent" points="-4,4 -4,-242.8 905,-242.8 905,4 -4,4"/>
<text text-anchor="middle" x="450.5" y="-8.2" font-family="sans-serif" font-size="14.00">dependencies</text>
<g id="clust1" class="cluster">
<title>cluster_CategoriesUiFeatureModule</title>
<polygon fill="none" stroke="black" stroke-dasharray="1,5" points="8,-32.8 8,-230.8 893,-230.8 893,-32.8 8,-32.8"/>
</g>
<g id="clust5" class="cluster">
<title>cluster_CategoriesUiFeatureModule_imports</title>
<polygon fill="none" stroke="black" points="403,-40.8 403,-92.8 885,-92.8 885,-40.8 403,-40.8"/>
</g>
<g id="clust2" class="cluster">
<title>cluster_CategoriesUiFeatureModule_declarations</title>
<polygon fill="none" stroke="black" points="16,-40.8 16,-92.8 395,-92.8 395,-40.8 16,-40.8"/>
</g>
<g id="clust6" class="cluster">
<title>cluster_CategoriesUiFeatureModule_exports</title>
<polygon fill="none" stroke="black" points="306,-170.8 306,-222.8 692,-222.8 692,-170.8 306,-170.8"/>
</g>
<!-- CategoriesFormComponent -->
<g id="node1" class="node">
<title>CategoriesFormComponent</title>
<polygon fill="#ffffb3" stroke="black" points="386.54,-84.8 215.46,-84.8 215.46,-48.8 386.54,-48.8 386.54,-84.8"/>
<text text-anchor="middle" x="301" y="-62.6" font-family="Times,serif" font-size="14.00">CategoriesFormComponent</text>
</g>
<!-- CategoriesUiFeatureModule -->
<g id="node3" class="node">
<title>CategoriesUiFeatureModule</title>
<polygon fill="#8dd3c7" stroke="black" points="586.9,-149.8 583.9,-153.8 562.9,-153.8 559.9,-149.8 411.1,-149.8 411.1,-113.8 586.9,-113.8 586.9,-149.8"/>
<text text-anchor="middle" x="499" y="-127.6" font-family="Times,serif" font-size="14.00">CategoriesUiFeatureModule</text>
</g>
<!-- CategoriesFormComponent&#45;&gt;CategoriesUiFeatureModule -->
<g id="edge1" class="edge">
<title>CategoriesFormComponent&#45;&gt;CategoriesUiFeatureModule</title>
<path fill="none" stroke="black" d="M350.24,-84.82C350.24,-102.17 350.24,-125.8 350.24,-125.8 350.24,-125.8 401.18,-125.8 401.18,-125.8"/>
<polygon fill="black" stroke="black" points="401.18,-129.3 411.18,-125.8 401.18,-122.3 401.18,-129.3"/>
</g>
<!-- CategoriesTableComponent -->
<g id="node2" class="node">
<title>CategoriesTableComponent</title>
<polygon fill="#ffffb3" stroke="black" points="197.57,-84.8 24.43,-84.8 24.43,-48.8 197.57,-48.8 197.57,-84.8"/>
<text text-anchor="middle" x="111" y="-62.6" font-family="Times,serif" font-size="14.00">CategoriesTableComponent</text>
</g>
<!-- CategoriesTableComponent&#45;&gt;CategoriesUiFeatureModule -->
<g id="edge2" class="edge">
<title>CategoriesTableComponent&#45;&gt;CategoriesUiFeatureModule</title>
<path fill="none" stroke="black" d="M111,-85.08C111,-106.12 111,-137.8 111,-137.8 111,-137.8 400.96,-137.8 400.96,-137.8"/>
<polygon fill="black" stroke="black" points="400.96,-141.3 410.96,-137.8 400.96,-134.3 400.96,-141.3"/>
</g>
<!-- CategoriesFormComponent  -->
<g id="node7" class="node">
<title>CategoriesFormComponent </title>
<polygon fill="#fb8072" stroke="black" points="683.54,-214.8 508.46,-214.8 508.46,-178.8 683.54,-178.8 683.54,-214.8"/>
<text text-anchor="middle" x="596" y="-192.6" font-family="Times,serif" font-size="14.00">CategoriesFormComponent </text>
</g>
<!-- CategoriesUiFeatureModule&#45;&gt;CategoriesFormComponent  -->
<g id="edge6" class="edge">
<title>CategoriesUiFeatureModule&#45;&gt;CategoriesFormComponent </title>
<path fill="none" stroke="black" stroke-dasharray="5,2" d="M547.59,-149.91C547.59,-149.91 547.59,-168.79 547.59,-168.79"/>
<polygon fill="black" stroke="black" points="544.09,-168.79 547.59,-178.79 551.09,-168.79 544.09,-168.79"/>
</g>
<!-- CategoriesTableComponent  -->
<g id="node8" class="node">
<title>CategoriesTableComponent </title>
<polygon fill="#fb8072" stroke="black" points="490.07,-214.8 313.93,-214.8 313.93,-178.8 490.07,-178.8 490.07,-214.8"/>
<text text-anchor="middle" x="402" y="-192.6" font-family="Times,serif" font-size="14.00">CategoriesTableComponent </text>
</g>
<!-- CategoriesUiFeatureModule&#45;&gt;CategoriesTableComponent  -->
<g id="edge7" class="edge">
<title>CategoriesUiFeatureModule&#45;&gt;CategoriesTableComponent </title>
<path fill="none" stroke="black" stroke-dasharray="5,2" d="M450.79,-149.91C450.79,-149.91 450.79,-168.79 450.79,-168.79"/>
<polygon fill="black" stroke="black" points="447.29,-168.79 450.79,-178.79 454.29,-168.79 447.29,-168.79"/>
</g>
<!-- CategoriesFeatureModule -->
<g id="node4" class="node">
<title>CategoriesFeatureModule</title>
<polygon fill="#8dd3c7" stroke="black" points="876.9,-84.8 873.9,-88.8 852.9,-88.8 849.9,-84.8 715.1,-84.8 715.1,-48.8 876.9,-48.8 876.9,-84.8"/>
<text text-anchor="middle" x="796" y="-62.6" font-family="Times,serif" font-size="14.00">CategoriesFeatureModule</text>
</g>
<!-- CategoriesFeatureModule&#45;&gt;CategoriesUiFeatureModule -->
<g id="edge3" class="edge">
<title>CategoriesFeatureModule&#45;&gt;CategoriesUiFeatureModule</title>
<path fill="none" stroke="black" d="M796,-85.08C796,-106.12 796,-137.8 796,-137.8 796,-137.8 596.9,-137.8 596.9,-137.8"/>
<polygon fill="black" stroke="black" points="596.9,-134.3 586.9,-137.8 596.9,-141.3 596.9,-134.3"/>
</g>
<!-- CurrencyPipe -->
<g id="node5" class="node">
<title>CurrencyPipe</title>
<polygon fill="#8dd3c7" stroke="black" points="697.48,-84.8 694.48,-88.8 673.48,-88.8 670.48,-84.8 604.52,-84.8 604.52,-48.8 697.48,-48.8 697.48,-84.8"/>
<text text-anchor="middle" x="651" y="-62.6" font-family="Times,serif" font-size="14.00">CurrencyPipe</text>
</g>
<!-- CurrencyPipe&#45;&gt;CategoriesUiFeatureModule -->
<g id="edge4" class="edge">
<title>CurrencyPipe&#45;&gt;CategoriesUiFeatureModule</title>
<path fill="none" stroke="black" d="M644.01,-84.82C644.01,-102.17 644.01,-125.8 644.01,-125.8 644.01,-125.8 596.7,-125.8 596.7,-125.8"/>
<polygon fill="black" stroke="black" points="596.7,-122.3 586.7,-125.8 596.7,-129.3 596.7,-122.3"/>
</g>
<!-- ValidationErrorsComponent -->
<g id="node6" class="node">
<title>ValidationErrorsComponent</title>
<polygon fill="#8dd3c7" stroke="black" points="586.91,-84.8 583.91,-88.8 562.91,-88.8 559.91,-84.8 411.09,-84.8 411.09,-48.8 586.91,-48.8 586.91,-84.8"/>
<text text-anchor="middle" x="499" y="-62.6" font-family="Times,serif" font-size="14.00">ValidationErrorsComponent</text>
</g>
<!-- ValidationErrorsComponent&#45;&gt;CategoriesUiFeatureModule -->
<g id="edge5" class="edge">
<title>ValidationErrorsComponent&#45;&gt;CategoriesUiFeatureModule</title>
<path fill="none" stroke="black" d="M499,-84.91C499,-84.91 499,-103.79 499,-103.79"/>
<polygon fill="black" stroke="black" points="495.5,-103.79 499,-113.79 502.5,-103.79 495.5,-103.79"/>
</g>
</g>
</svg>
