<?xml version="1.0" encoding="UTF-8" standalone="no"?>
<!DOCTYPE svg PUBLIC "-//W3C//DTD SVG 1.1//EN"
 "http://www.w3.org/Graphics/SVG/1.1/DTD/svg11.dtd">
<!-- Generated by graphviz version 5.0.0 (20220707.1540)
 -->
<!-- Title: dependencies Pages: 1 -->
<svg width="909pt" height="247pt"
 viewBox="0.00 0.00 909.00 246.80" xmlns="http://www.w3.org/2000/svg" xmlns:xlink="http://www.w3.org/1999/xlink">
<g id="graph0" class="graph" transform="scale(1 1) rotate(0) translate(4 242.8)">
<title>dependencies</title>
<polygon fill="white" stroke="transparent" points="-4,4 -4,-242.8 905,-242.8 905,4 -4,4"/>
<text text-anchor="middle" x="450.5" y="-8.2" font-family="sans-serif" font-size="14.00">dependencies</text>
<g id="clust1" class="cluster">
<title>cluster_CategoriesUiFeatureModule</title>
<polygon fill="none" stroke="black" stroke-dasharray="1,5" points="8,-32.8 8,-230.8 893,-230.8 893,-32.8 8,-32.8"/>
</g>
<g id="clust2" class="cluster">
<title>cluster_CategoriesUiFeatureModule_declarations</title>
<polygon fill="none" stroke="black" points="506,-40.8 506,-92.8 885,-92.8 885,-40.8 506,-40.8"/>
</g>
<g id="clust5" class="cluster">
<title>cluster_CategoriesUiFeatureModule_imports</title>
<polygon fill="none" stroke="black" points="16,-40.8 16,-92.8 498,-92.8 498,-40.8 16,-40.8"/>
</g>
<g id="clust6" class="cluster">
<title>cluster_CategoriesUiFeatureModule_exports</title>
<polygon fill="none" stroke="black" points="216,-170.8 216,-222.8 602,-222.8 602,-170.8 216,-170.8"/>
</g>
<!-- CategoriesFormComponent -->
<g id="node1" class="node">
<title>CategoriesFormComponent</title>
<polygon fill="#ffffb3" stroke="black" points="876.54,-84.8 705.46,-84.8 705.46,-48.8 876.54,-48.8 876.54,-84.8"/>
<text text-anchor="middle" x="791" y="-62.6" font-family="Times,serif" font-size="14.00">CategoriesFormComponent</text>
</g>
<!-- CategoriesUiFeatureModule -->
<g id="node3" class="node">
<title>CategoriesUiFeatureModule</title>
<polygon fill="#8dd3c7" stroke="black" points="496.9,-149.8 493.9,-153.8 472.9,-153.8 469.9,-149.8 321.1,-149.8 321.1,-113.8 496.9,-113.8 496.9,-149.8"/>
<text text-anchor="middle" x="409" y="-127.6" font-family="Times,serif" font-size="14.00">CategoriesUiFeatureModule</text>
</g>
<!-- CategoriesFormComponent&#45;&gt;CategoriesUiFeatureModule -->
<g id="edge1" class="edge">
<title>CategoriesFormComponent&#45;&gt;CategoriesUiFeatureModule</title>
<path fill="none" stroke="black" d="M791,-84.91C791,-104.14 791,-131.8 791,-131.8 791,-131.8 507.12,-131.8 507.12,-131.8"/>
<polygon fill="black" stroke="black" points="507.12,-128.3 497.12,-131.8 507.12,-135.3 507.12,-128.3"/>
</g>
<!-- CategoriesTableComponent -->
<g id="node2" class="node">
<title>CategoriesTableComponent</title>
<polygon fill="#ffffb3" stroke="black" points="687.57,-84.8 514.43,-84.8 514.43,-48.8 687.57,-48.8 687.57,-84.8"/>
<text text-anchor="middle" x="601" y="-62.6" font-family="Times,serif" font-size="14.00">CategoriesTableComponent</text>
</g>
<!-- CategoriesTableComponent&#45;&gt;CategoriesUiFeatureModule -->
<g id="edge2" class="edge">
<title>CategoriesTableComponent&#45;&gt;CategoriesUiFeatureModule</title>
<path fill="none" stroke="black" d="M514.24,-66.8C501.85,-66.8 493.2,-66.8 493.2,-66.8 493.2,-66.8 493.2,-103.69 493.2,-103.69"/>
<polygon fill="black" stroke="black" points="489.7,-103.69 493.2,-113.69 496.7,-103.69 489.7,-103.69"/>
</g>
<!-- CategoriesFormComponent  -->
<g id="node7" class="node">
<title>CategoriesFormComponent </title>
<polygon fill="#fb8072" stroke="black" points="593.54,-214.8 418.46,-214.8 418.46,-178.8 593.54,-178.8 593.54,-214.8"/>
<text text-anchor="middle" x="506" y="-192.6" font-family="Times,serif" font-size="14.00">CategoriesFormComponent </text>
</g>
<!-- CategoriesUiFeatureModule&#45;&gt;CategoriesFormComponent  -->
<g id="edge6" class="edge">
<title>CategoriesUiFeatureModule&#45;&gt;CategoriesFormComponent </title>
<path fill="none" stroke="black" stroke-dasharray="5,2" d="M457.59,-149.91C457.59,-149.91 457.59,-168.79 457.59,-168.79"/>
<polygon fill="black" stroke="black" points="454.09,-168.79 457.59,-178.79 461.09,-168.79 454.09,-168.79"/>
</g>
<!-- CategoriesTableComponent  -->
<g id="node8" class="node">
<title>CategoriesTableComponent </title>
<polygon fill="#fb8072" stroke="black" points="400.07,-214.8 223.93,-214.8 223.93,-178.8 400.07,-178.8 400.07,-214.8"/>
<text text-anchor="middle" x="312" y="-192.6" font-family="Times,serif" font-size="14.00">CategoriesTableComponent </text>
</g>
<!-- CategoriesUiFeatureModule&#45;&gt;CategoriesTableComponent  -->
<g id="edge7" class="edge">
<title>CategoriesUiFeatureModule&#45;&gt;CategoriesTableComponent </title>
<path fill="none" stroke="black" stroke-dasharray="5,2" d="M360.79,-149.91C360.79,-149.91 360.79,-168.79 360.79,-168.79"/>
<polygon fill="black" stroke="black" points="357.29,-168.79 360.79,-178.79 364.29,-168.79 357.29,-168.79"/>
</g>
<!-- CategoriesFeatureModule -->
<g id="node4" class="node">
<title>CategoriesFeatureModule</title>
<polygon fill="#8dd3c7" stroke="black" points="489.9,-84.8 486.9,-88.8 465.9,-88.8 462.9,-84.8 328.1,-84.8 328.1,-48.8 489.9,-48.8 489.9,-84.8"/>
<text text-anchor="middle" x="409" y="-62.6" font-family="Times,serif" font-size="14.00">CategoriesFeatureModule</text>
</g>
<!-- CategoriesFeatureModule&#45;&gt;CategoriesUiFeatureModule -->
<g id="edge3" class="edge">
<title>CategoriesFeatureModule&#45;&gt;CategoriesUiFeatureModule</title>
<path fill="none" stroke="black" d="M409,-84.91C409,-84.91 409,-103.79 409,-103.79"/>
<polygon fill="black" stroke="black" points="405.5,-103.79 409,-113.79 412.5,-103.79 405.5,-103.79"/>
</g>
<!-- CurrencyPipe -->
<g id="node5" class="node">
<title>CurrencyPipe</title>
<polygon fill="#8dd3c7" stroke="black" points="310.48,-84.8 307.48,-88.8 286.48,-88.8 283.48,-84.8 217.52,-84.8 217.52,-48.8 310.48,-48.8 310.48,-84.8"/>
<text text-anchor="middle" x="264" y="-62.6" font-family="Times,serif" font-size="14.00">CurrencyPipe</text>
</g>
<!-- CurrencyPipe&#45;&gt;CategoriesUiFeatureModule -->
<g id="edge4" class="edge">
<title>CurrencyPipe&#45;&gt;CategoriesUiFeatureModule</title>
<path fill="none" stroke="black" d="M310.7,-66.8C318.86,-66.8 324.8,-66.8 324.8,-66.8 324.8,-66.8 324.8,-103.69 324.8,-103.69"/>
<polygon fill="black" stroke="black" points="321.3,-103.69 324.8,-113.69 328.3,-103.69 321.3,-103.69"/>
</g>
<!-- ValidationErrorsComponent -->
<g id="node6" class="node">
<title>ValidationErrorsComponent</title>
<polygon fill="#8dd3c7" stroke="black" points="199.91,-84.8 196.91,-88.8 175.91,-88.8 172.91,-84.8 24.09,-84.8 24.09,-48.8 199.91,-48.8 199.91,-84.8"/>
<text text-anchor="middle" x="112" y="-62.6" font-family="Times,serif" font-size="14.00">ValidationErrorsComponent</text>
</g>
<!-- ValidationErrorsComponent&#45;&gt;CategoriesUiFeatureModule -->
<g id="edge5" class="edge">
<title>ValidationErrorsComponent&#45;&gt;CategoriesUiFeatureModule</title>
<path fill="none" stroke="black" d="M112,-84.91C112,-104.14 112,-131.8 112,-131.8 112,-131.8 311.1,-131.8 311.1,-131.8"/>
<polygon fill="black" stroke="black" points="311.1,-135.3 321.1,-131.8 311.1,-128.3 311.1,-135.3"/>
</g>
</g>
</svg>
