<?xml version="1.0" encoding="UTF-8" standalone="no"?>
<!DOCTYPE svg PUBLIC "-//W3C//DTD SVG 1.1//EN"
 "http://www.w3.org/Graphics/SVG/1.1/DTD/svg11.dtd">
<!-- Generated by graphviz version 5.0.0 (20220707.1540)
 -->
<!-- Title: dependencies Pages: 1 -->
<svg width="618pt" height="174pt"
 viewBox="0.00 0.00 618.00 173.80" xmlns="http://www.w3.org/2000/svg" xmlns:xlink="http://www.w3.org/1999/xlink">
<g id="graph0" class="graph" transform="scale(1 1) rotate(0) translate(4 169.8)">
<title>dependencies</title>
<polygon fill="white" stroke="transparent" points="-4,4 -4,-169.8 614,-169.8 614,4 -4,4"/>
<text text-anchor="middle" x="305" y="-8.2" font-family="sans-serif" font-size="14.00">dependencies</text>
<g id="clust1" class="cluster">
<title>cluster_CoreModule</title>
<polygon fill="none" stroke="black" stroke-dasharray="1,5" points="8,-32.8 8,-157.8 602,-157.8 602,-32.8 8,-32.8"/>
</g>
<g id="clust6" class="cluster">
<title>cluster_CoreModule_providers</title>
<polygon fill="none" stroke="black" points="16,-40.8 16,-92.8 594,-92.8 594,-40.8 16,-40.8"/>
</g>
<!-- ApiService -->
<g id="node1" class="node">
<title>ApiService</title>
<ellipse fill="#fdb462" stroke="black" cx="532" cy="-66.8" rx="54.46" ry="18"/>
<text text-anchor="middle" x="532" y="-62.6" font-family="Times,serif" font-size="14.00">ApiService</text>
</g>
<!-- CoreModule -->
<g id="node5" class="node">
<title>CoreModule</title>
<polygon fill="#8dd3c7" stroke="black" points="353.27,-149.8 350.27,-153.8 329.27,-153.8 326.27,-149.8 266.73,-149.8 266.73,-113.8 353.27,-113.8 353.27,-149.8"/>
<text text-anchor="middle" x="310" y="-127.6" font-family="Times,serif" font-size="14.00">CoreModule</text>
</g>
<!-- ApiService&#45;&gt;CoreModule -->
<g id="edge1" class="edge">
<title>ApiService&#45;&gt;CoreModule</title>
<path fill="none" stroke="black" d="M532,-84.91C532,-104.14 532,-131.8 532,-131.8 532,-131.8 363.33,-131.8 363.33,-131.8"/>
<polygon fill="black" stroke="black" points="363.33,-128.3 353.33,-131.8 363.33,-135.3 363.33,-128.3"/>
</g>
<!-- AuthInterceptor -->
<g id="node2" class="node">
<title>AuthInterceptor</title>
<ellipse fill="#fdb462" stroke="black" cx="387" cy="-66.8" rx="72.92" ry="18"/>
<text text-anchor="middle" x="387" y="-62.6" font-family="Times,serif" font-size="14.00">AuthInterceptor</text>
</g>
<!-- AuthInterceptor&#45;&gt;CoreModule -->
<g id="edge2" class="edge">
<title>AuthInterceptor&#45;&gt;CoreModule</title>
<path fill="none" stroke="black" d="M333.84,-79.33C333.84,-79.33 333.84,-103.65 333.84,-103.65"/>
<polygon fill="black" stroke="black" points="330.34,-103.65 333.84,-113.65 337.34,-103.65 330.34,-103.65"/>
</g>
<!-- DatesService -->
<g id="node3" class="node">
<title>DatesService</title>
<ellipse fill="#fdb462" stroke="black" cx="234" cy="-66.8" rx="61.96" ry="18"/>
<text text-anchor="middle" x="234" y="-62.6" font-family="Times,serif" font-size="14.00">DatesService</text>
</g>
<!-- DatesService&#45;&gt;CoreModule -->
<g id="edge3" class="edge">
<title>DatesService&#45;&gt;CoreModule</title>
<path fill="none" stroke="black" d="M281.3,-78.72C281.3,-78.72 281.3,-103.57 281.3,-103.57"/>
<polygon fill="black" stroke="black" points="277.8,-103.57 281.3,-113.57 284.8,-103.57 277.8,-103.57"/>
</g>
<!-- TokenService -->
<g id="node4" class="node">
<title>TokenService</title>
<ellipse fill="#fdb462" stroke="black" cx="89" cy="-66.8" rx="64.83" ry="18"/>
<text text-anchor="middle" x="89" y="-62.6" font-family="Times,serif" font-size="14.00">TokenService</text>
</g>
<!-- TokenService&#45;&gt;CoreModule -->
<g id="edge4" class="edge">
<title>TokenService&#45;&gt;CoreModule</title>
<path fill="none" stroke="black" d="M89,-84.91C89,-104.14 89,-131.8 89,-131.8 89,-131.8 256.6,-131.8 256.6,-131.8"/>
<polygon fill="black" stroke="black" points="256.6,-135.3 266.6,-131.8 256.6,-128.3 256.6,-135.3"/>
</g>
</g>
</svg>
