<?xml version="1.0" encoding="UTF-8" standalone="no"?>
<!DOCTYPE svg PUBLIC "-//W3C//DTD SVG 1.1//EN"
 "http://www.w3.org/Graphics/SVG/1.1/DTD/svg11.dtd">
<!-- Generated by graphviz version 5.0.0 (20220707.1540)
 -->
<!-- Title: dependencies Pages: 1 -->
<svg width="470pt" height="174pt"
 viewBox="0.00 0.00 470.00 173.80" xmlns="http://www.w3.org/2000/svg" xmlns:xlink="http://www.w3.org/1999/xlink">
<g id="graph0" class="graph" transform="scale(1 1) rotate(0) translate(4 169.8)">
<title>dependencies</title>
<polygon fill="white" stroke="transparent" points="-4,4 -4,-169.8 466,-169.8 466,4 -4,4"/>
<text text-anchor="middle" x="231" y="-8.2" font-family="sans-serif" font-size="14.00">dependencies</text>
<g id="clust1" class="cluster">
<title>cluster_CoreModule</title>
<polygon fill="none" stroke="black" stroke-dasharray="1,5" points="8,-32.8 8,-157.8 454,-157.8 454,-32.8 8,-32.8"/>
</g>
<g id="clust6" class="cluster">
<title>cluster_CoreModule_providers</title>
<polygon fill="none" stroke="black" points="16,-40.8 16,-92.8 446,-92.8 446,-40.8 16,-40.8"/>
</g>
<!-- ApiService -->
<g id="node1" class="node">
<title>ApiService</title>
<ellipse fill="#fdb462" stroke="black" cx="384" cy="-66.8" rx="54.46" ry="18"/>
<text text-anchor="middle" x="384" y="-62.6" font-family="Times,serif" font-size="14.00">ApiService</text>
</g>
<!-- CoreModule -->
<g id="node4" class="node">
<title>CoreModule</title>
<polygon fill="#8dd3c7" stroke="black" points="282.27,-149.8 279.27,-153.8 258.27,-153.8 255.27,-149.8 195.73,-149.8 195.73,-113.8 282.27,-113.8 282.27,-149.8"/>
<text text-anchor="middle" x="239" y="-127.6" font-family="Times,serif" font-size="14.00">CoreModule</text>
</g>
<!-- ApiService&#45;&gt;CoreModule -->
<g id="edge1" class="edge">
<title>ApiService&#45;&gt;CoreModule</title>
<path fill="none" stroke="black" d="M384,-84.91C384,-104.14 384,-131.8 384,-131.8 384,-131.8 292.5,-131.8 292.5,-131.8"/>
<polygon fill="black" stroke="black" points="292.5,-128.3 282.5,-131.8 292.5,-135.3 292.5,-128.3"/>
</g>
<!-- AuthInterceptor -->
<g id="node2" class="node">
<title>AuthInterceptor</title>
<ellipse fill="#fdb462" stroke="black" cx="239" cy="-66.8" rx="72.92" ry="18"/>
<text text-anchor="middle" x="239" y="-62.6" font-family="Times,serif" font-size="14.00">AuthInterceptor</text>
</g>
<!-- AuthInterceptor&#45;&gt;CoreModule -->
<g id="edge2" class="edge">
<title>AuthInterceptor&#45;&gt;CoreModule</title>
<path fill="none" stroke="black" d="M239,-84.91C239,-84.91 239,-103.79 239,-103.79"/>
<polygon fill="black" stroke="black" points="235.5,-103.79 239,-113.79 242.5,-103.79 235.5,-103.79"/>
</g>
<!-- DatesService -->
<g id="node3" class="node">
<title>DatesService</title>
<ellipse fill="#fdb462" stroke="black" cx="86" cy="-66.8" rx="61.96" ry="18"/>
<text text-anchor="middle" x="86" y="-62.6" font-family="Times,serif" font-size="14.00">DatesService</text>
</g>
<!-- DatesService&#45;&gt;CoreModule -->
<g id="edge3" class="edge">
<title>DatesService&#45;&gt;CoreModule</title>
<path fill="none" stroke="black" d="M86,-84.91C86,-104.14 86,-131.8 86,-131.8 86,-131.8 185.57,-131.8 185.57,-131.8"/>
<polygon fill="black" stroke="black" points="185.57,-135.3 195.57,-131.8 185.57,-128.3 185.57,-135.3"/>
</g>
</g>
</svg>
