<?xml version="1.0" encoding="UTF-8" standalone="no"?>
<!DOCTYPE svg PUBLIC "-//W3C//DTD SVG 1.1//EN"
 "http://www.w3.org/Graphics/SVG/1.1/DTD/svg11.dtd">
<!-- Generated by graphviz version 5.0.0 (20220707.1540)
 -->
<!-- Title: dependencies Pages: 1 -->
<svg width="1188pt" height="174pt"
 viewBox="0.00 0.00 1188.00 173.80" xmlns="http://www.w3.org/2000/svg" xmlns:xlink="http://www.w3.org/1999/xlink">
<g id="graph0" class="graph" transform="scale(1 1) rotate(0) translate(4 169.8)">
<title>dependencies</title>
<polygon fill="white" stroke="transparent" points="-4,4 -4,-169.8 1184,-169.8 1184,4 -4,4"/>
<text text-anchor="middle" x="590" y="-8.2" font-family="sans-serif" font-size="14.00">dependencies</text>
<g id="clust1" class="cluster">
<title>cluster_MovementsPageModule</title>
<polygon fill="none" stroke="black" stroke-dasharray="1,5" points="8,-32.8 8,-157.8 1172,-157.8 1172,-32.8 8,-32.8"/>
</g>
<g id="clust2" class="cluster">
<title>cluster_MovementsPageModule_declarations</title>
<polygon fill="none" stroke="black" points="650,-40.8 650,-92.8 1164,-92.8 1164,-40.8 650,-40.8"/>
</g>
<g id="clust5" class="cluster">
<title>cluster_MovementsPageModule_imports</title>
<polygon fill="none" stroke="black" points="16,-40.8 16,-92.8 642,-92.8 642,-40.8 16,-40.8"/>
</g>
<!-- MovementsPageFormLayoutComponent -->
<g id="node1" class="node">
<title>MovementsPageFormLayoutComponent</title>
<polygon fill="#ffffb3" stroke="black" points="1156.14,-84.8 911.86,-84.8 911.86,-48.8 1156.14,-48.8 1156.14,-84.8"/>
<text text-anchor="middle" x="1034" y="-62.6" font-family="Times,serif" font-size="14.00">MovementsPageFormLayoutComponent</text>
</g>
<!-- MovementsPageModule -->
<g id="node3" class="node">
<title>MovementsPageModule</title>
<polygon fill="#8dd3c7" stroke="black" points="611.37,-149.8 608.37,-153.8 587.37,-153.8 584.37,-149.8 458.63,-149.8 458.63,-113.8 611.37,-113.8 611.37,-149.8"/>
<text text-anchor="middle" x="535" y="-127.6" font-family="Times,serif" font-size="14.00">MovementsPageModule</text>
</g>
<!-- MovementsPageFormLayoutComponent&#45;&gt;MovementsPageModule -->
<g id="edge1" class="edge">
<title>MovementsPageFormLayoutComponent&#45;&gt;MovementsPageModule</title>
<path fill="none" stroke="black" d="M1034,-85.08C1034,-106.12 1034,-137.8 1034,-137.8 1034,-137.8 621.6,-137.8 621.6,-137.8"/>
<polygon fill="black" stroke="black" points="621.6,-134.3 611.6,-137.8 621.6,-141.3 621.6,-134.3"/>
</g>
<!-- MovementsPageListLayoutComponent -->
<g id="node2" class="node">
<title>MovementsPageListLayoutComponent</title>
<polygon fill="#ffffb3" stroke="black" points="894.08,-84.8 657.92,-84.8 657.92,-48.8 894.08,-48.8 894.08,-84.8"/>
<text text-anchor="middle" x="776" y="-62.6" font-family="Times,serif" font-size="14.00">MovementsPageListLayoutComponent</text>
</g>
<!-- MovementsPageListLayoutComponent&#45;&gt;MovementsPageModule -->
<g id="edge2" class="edge">
<title>MovementsPageListLayoutComponent&#45;&gt;MovementsPageModule</title>
<path fill="none" stroke="black" d="M776,-84.82C776,-102.17 776,-125.8 776,-125.8 776,-125.8 621.59,-125.8 621.59,-125.8"/>
<polygon fill="black" stroke="black" points="621.59,-122.3 611.59,-125.8 621.59,-129.3 621.59,-122.3"/>
</g>
<!-- MovementsPageRoutingModule -->
<g id="node4" class="node">
<title>MovementsPageRoutingModule</title>
<polygon fill="#8dd3c7" stroke="black" points="633.99,-84.8 630.99,-88.8 609.99,-88.8 606.99,-84.8 436.01,-84.8 436.01,-48.8 633.99,-48.8 633.99,-84.8"/>
<text text-anchor="middle" x="535" y="-62.6" font-family="Times,serif" font-size="14.00">MovementsPageRoutingModule</text>
</g>
<!-- MovementsPageRoutingModule&#45;&gt;MovementsPageModule -->
<g id="edge3" class="edge">
<title>MovementsPageRoutingModule&#45;&gt;MovementsPageModule</title>
<path fill="none" stroke="black" d="M535,-84.91C535,-84.91 535,-103.79 535,-103.79"/>
<polygon fill="black" stroke="black" points="531.5,-103.79 535,-113.79 538.5,-103.79 531.5,-103.79"/>
</g>
<!-- MovementsUiFeatureModule -->
<g id="node5" class="node">
<title>MovementsUiFeatureModule</title>
<polygon fill="#8dd3c7" stroke="black" points="417.64,-84.8 414.64,-88.8 393.64,-88.8 390.64,-84.8 236.36,-84.8 236.36,-48.8 417.64,-48.8 417.64,-84.8"/>
<text text-anchor="middle" x="327" y="-62.6" font-family="Times,serif" font-size="14.00">MovementsUiFeatureModule</text>
</g>
<!-- MovementsUiFeatureModule&#45;&gt;MovementsPageModule -->
<g id="edge4" class="edge">
<title>MovementsUiFeatureModule&#45;&gt;MovementsPageModule</title>
<path fill="none" stroke="black" d="M327,-84.82C327,-102.17 327,-125.8 327,-125.8 327,-125.8 448.43,-125.8 448.43,-125.8"/>
<polygon fill="black" stroke="black" points="448.43,-129.3 458.43,-125.8 448.43,-122.3 448.43,-129.3"/>
</g>
<!-- SharedBreadcrumbsComponent -->
<g id="node6" class="node">
<title>SharedBreadcrumbsComponent</title>
<polygon fill="#8dd3c7" stroke="black" points="218.35,-84.8 215.35,-88.8 194.35,-88.8 191.35,-84.8 23.65,-84.8 23.65,-48.8 218.35,-48.8 218.35,-84.8"/>
<text text-anchor="middle" x="121" y="-62.6" font-family="Times,serif" font-size="14.00">SharedBreadcrumbsComponent</text>
</g>
<!-- SharedBreadcrumbsComponent&#45;&gt;MovementsPageModule -->
<g id="edge5" class="edge">
<title>SharedBreadcrumbsComponent&#45;&gt;MovementsPageModule</title>
<path fill="none" stroke="black" d="M121,-85.08C121,-106.12 121,-137.8 121,-137.8 121,-137.8 448.58,-137.8 448.58,-137.8"/>
<polygon fill="black" stroke="black" points="448.58,-141.3 458.58,-137.8 448.58,-134.3 448.58,-141.3"/>
</g>
</g>
</svg>
