<?xml version="1.0" encoding="UTF-8" standalone="no"?>
<!DOCTYPE svg PUBLIC "-//W3C//DTD SVG 1.1//EN"
 "http://www.w3.org/Graphics/SVG/1.1/DTD/svg11.dtd">
<!-- Generated by graphviz version 5.0.0 (20220707.1540)
 -->
<!-- Title: dependencies Pages: 1 -->
<svg width="1188pt" height="174pt"
 viewBox="0.00 0.00 1188.00 173.80" xmlns="http://www.w3.org/2000/svg" xmlns:xlink="http://www.w3.org/1999/xlink">
<g id="graph0" class="graph" transform="scale(1 1) rotate(0) translate(4 169.8)">
<title>dependencies</title>
<polygon fill="white" stroke="transparent" points="-4,4 -4,-169.8 1184,-169.8 1184,4 -4,4"/>
<text text-anchor="middle" x="590" y="-8.2" font-family="sans-serif" font-size="14.00">dependencies</text>
<g id="clust1" class="cluster">
<title>cluster_MovementsPageModule</title>
<polygon fill="none" stroke="black" stroke-dasharray="1,5" points="8,-32.8 8,-157.8 1172,-157.8 1172,-32.8 8,-32.8"/>
</g>
<g id="clust5" class="cluster">
<title>cluster_MovementsPageModule_imports</title>
<polygon fill="none" stroke="black" points="538,-40.8 538,-92.8 1164,-92.8 1164,-40.8 538,-40.8"/>
</g>
<g id="clust2" class="cluster">
<title>cluster_MovementsPageModule_declarations</title>
<polygon fill="none" stroke="black" points="16,-40.8 16,-92.8 530,-92.8 530,-40.8 16,-40.8"/>
</g>
<!-- MovementsPageFormLayoutComponent -->
<g id="node1" class="node">
<title>MovementsPageFormLayoutComponent</title>
<polygon fill="#ffffb3" stroke="black" points="522.14,-84.8 277.86,-84.8 277.86,-48.8 522.14,-48.8 522.14,-84.8"/>
<text text-anchor="middle" x="400" y="-62.6" font-family="Times,serif" font-size="14.00">MovementsPageFormLayoutComponent</text>
</g>
<!-- MovementsPageModule -->
<g id="node3" class="node">
<title>MovementsPageModule</title>
<polygon fill="#8dd3c7" stroke="black" points="719.37,-149.8 716.37,-153.8 695.37,-153.8 692.37,-149.8 566.63,-149.8 566.63,-113.8 719.37,-113.8 719.37,-149.8"/>
<text text-anchor="middle" x="643" y="-127.6" font-family="Times,serif" font-size="14.00">MovementsPageModule</text>
</g>
<!-- MovementsPageFormLayoutComponent&#45;&gt;MovementsPageModule -->
<g id="edge1" class="edge">
<title>MovementsPageFormLayoutComponent&#45;&gt;MovementsPageModule</title>
<path fill="none" stroke="black" d="M400,-84.82C400,-102.17 400,-125.8 400,-125.8 400,-125.8 556.45,-125.8 556.45,-125.8"/>
<polygon fill="black" stroke="black" points="556.45,-129.3 566.45,-125.8 556.45,-122.3 556.45,-129.3"/>
</g>
<!-- MovementsPageListLayoutComponent -->
<g id="node2" class="node">
<title>MovementsPageListLayoutComponent</title>
<polygon fill="#ffffb3" stroke="black" points="260.08,-84.8 23.92,-84.8 23.92,-48.8 260.08,-48.8 260.08,-84.8"/>
<text text-anchor="middle" x="142" y="-62.6" font-family="Times,serif" font-size="14.00">MovementsPageListLayoutComponent</text>
</g>
<!-- MovementsPageListLayoutComponent&#45;&gt;MovementsPageModule -->
<g id="edge2" class="edge">
<title>MovementsPageListLayoutComponent&#45;&gt;MovementsPageModule</title>
<path fill="none" stroke="black" d="M142,-85.08C142,-106.12 142,-137.8 142,-137.8 142,-137.8 556.36,-137.8 556.36,-137.8"/>
<polygon fill="black" stroke="black" points="556.36,-141.3 566.36,-137.8 556.36,-134.3 556.36,-141.3"/>
</g>
<!-- MovementsPageRoutingModule -->
<g id="node4" class="node">
<title>MovementsPageRoutingModule</title>
<polygon fill="#8dd3c7" stroke="black" points="1155.99,-84.8 1152.99,-88.8 1131.99,-88.8 1128.99,-84.8 958.01,-84.8 958.01,-48.8 1155.99,-48.8 1155.99,-84.8"/>
<text text-anchor="middle" x="1057" y="-62.6" font-family="Times,serif" font-size="14.00">MovementsPageRoutingModule</text>
</g>
<!-- MovementsPageRoutingModule&#45;&gt;MovementsPageModule -->
<g id="edge3" class="edge">
<title>MovementsPageRoutingModule&#45;&gt;MovementsPageModule</title>
<path fill="none" stroke="black" d="M1057,-85.08C1057,-106.12 1057,-137.8 1057,-137.8 1057,-137.8 729.42,-137.8 729.42,-137.8"/>
<polygon fill="black" stroke="black" points="729.42,-134.3 719.42,-137.8 729.42,-141.3 729.42,-134.3"/>
</g>
<!-- MovementsUiFeatureModule -->
<g id="node5" class="node">
<title>MovementsUiFeatureModule</title>
<polygon fill="#8dd3c7" stroke="black" points="939.64,-84.8 936.64,-88.8 915.64,-88.8 912.64,-84.8 758.36,-84.8 758.36,-48.8 939.64,-48.8 939.64,-84.8"/>
<text text-anchor="middle" x="849" y="-62.6" font-family="Times,serif" font-size="14.00">MovementsUiFeatureModule</text>
</g>
<!-- MovementsUiFeatureModule&#45;&gt;MovementsPageModule -->
<g id="edge4" class="edge">
<title>MovementsUiFeatureModule&#45;&gt;MovementsPageModule</title>
<path fill="none" stroke="black" d="M849,-84.82C849,-102.17 849,-125.8 849,-125.8 849,-125.8 729.41,-125.8 729.41,-125.8"/>
<polygon fill="black" stroke="black" points="729.41,-122.3 719.41,-125.8 729.41,-129.3 729.41,-122.3"/>
</g>
<!-- SharedBreadcrumbsComponent -->
<g id="node6" class="node">
<title>SharedBreadcrumbsComponent</title>
<polygon fill="#8dd3c7" stroke="black" points="740.35,-84.8 737.35,-88.8 716.35,-88.8 713.35,-84.8 545.65,-84.8 545.65,-48.8 740.35,-48.8 740.35,-84.8"/>
<text text-anchor="middle" x="643" y="-62.6" font-family="Times,serif" font-size="14.00">SharedBreadcrumbsComponent</text>
</g>
<!-- SharedBreadcrumbsComponent&#45;&gt;MovementsPageModule -->
<g id="edge5" class="edge">
<title>SharedBreadcrumbsComponent&#45;&gt;MovementsPageModule</title>
<path fill="none" stroke="black" d="M643,-84.91C643,-84.91 643,-103.79 643,-103.79"/>
<polygon fill="black" stroke="black" points="639.5,-103.79 643,-113.79 646.5,-103.79 639.5,-103.79"/>
</g>
</g>
</svg>
