<?xml version="1.0" encoding="UTF-8" standalone="no"?>
<!DOCTYPE svg PUBLIC "-//W3C//DTD SVG 1.1//EN"
 "http://www.w3.org/Graphics/SVG/1.1/DTD/svg11.dtd">
<!-- Generated by graphviz version 5.0.0 (20220707.1540)
 -->
<!-- Title: dependencies Pages: 1 -->
<svg width="458pt" height="247pt"
 viewBox="0.00 0.00 458.00 246.80" xmlns="http://www.w3.org/2000/svg" xmlns:xlink="http://www.w3.org/1999/xlink">
<g id="graph0" class="graph" transform="scale(1 1) rotate(0) translate(4 242.8)">
<title>dependencies</title>
<polygon fill="white" stroke="transparent" points="-4,4 -4,-242.8 454,-242.8 454,4 -4,4"/>
<text text-anchor="middle" x="225" y="-8.2" font-family="sans-serif" font-size="14.00">dependencies</text>
<g id="clust1" class="cluster">
<title>cluster_AuthenticationUiFeatureModule</title>
<polygon fill="none" stroke="black" stroke-dasharray="1,5" points="8,-32.8 8,-230.8 442,-230.8 442,-32.8 8,-32.8"/>
</g>
<g id="clust2" class="cluster">
<title>cluster_AuthenticationUiFeatureModule_declarations</title>
<polygon fill="none" stroke="black" points="224,-40.8 224,-92.8 434,-92.8 434,-40.8 224,-40.8"/>
</g>
<g id="clust5" class="cluster">
<title>cluster_AuthenticationUiFeatureModule_exports</title>
<polygon fill="none" stroke="black" points="118,-170.8 118,-222.8 332,-222.8 332,-170.8 118,-170.8"/>
</g>
<g id="clust4" class="cluster">
<title>cluster_AuthenticationUiFeatureModule_imports</title>
<polygon fill="none" stroke="black" points="16,-40.8 16,-92.8 216,-92.8 216,-40.8 16,-40.8"/>
</g>
<!-- AuthenticationFormComponent -->
<g id="node1" class="node">
<title>AuthenticationFormComponent</title>
<polygon fill="#ffffb3" stroke="black" points="426.37,-84.8 231.63,-84.8 231.63,-48.8 426.37,-48.8 426.37,-84.8"/>
<text text-anchor="middle" x="329" y="-62.6" font-family="Times,serif" font-size="14.00">AuthenticationFormComponent</text>
</g>
<!-- AuthenticationUiFeatureModule -->
<g id="node2" class="node">
<title>AuthenticationUiFeatureModule</title>
<polygon fill="#8dd3c7" stroke="black" points="324.23,-149.8 321.23,-153.8 300.23,-153.8 297.23,-149.8 125.77,-149.8 125.77,-113.8 324.23,-113.8 324.23,-149.8"/>
<text text-anchor="middle" x="225" y="-127.6" font-family="Times,serif" font-size="14.00">AuthenticationUiFeatureModule</text>
</g>
<!-- AuthenticationFormComponent&#45;&gt;AuthenticationUiFeatureModule -->
<g id="edge1" class="edge">
<title>AuthenticationFormComponent&#45;&gt;AuthenticationUiFeatureModule</title>
<path fill="none" stroke="black" d="M277.97,-84.91C277.97,-84.91 277.97,-103.79 277.97,-103.79"/>
<polygon fill="black" stroke="black" points="274.47,-103.79 277.97,-113.79 281.47,-103.79 274.47,-103.79"/>
</g>
<!-- AuthenticationFormComponent  -->
<g id="node4" class="node">
<title>AuthenticationFormComponent </title>
<polygon fill="#fb8072" stroke="black" points="324.37,-214.8 125.63,-214.8 125.63,-178.8 324.37,-178.8 324.37,-214.8"/>
<text text-anchor="middle" x="225" y="-192.6" font-family="Times,serif" font-size="14.00">AuthenticationFormComponent </text>
</g>
<!-- AuthenticationUiFeatureModule&#45;&gt;AuthenticationFormComponent  -->
<g id="edge3" class="edge">
<title>AuthenticationUiFeatureModule&#45;&gt;AuthenticationFormComponent </title>
<path fill="none" stroke="black" stroke-dasharray="5,2" d="M225,-149.91C225,-149.91 225,-168.79 225,-168.79"/>
<polygon fill="black" stroke="black" points="221.5,-168.79 225,-178.79 228.5,-168.79 221.5,-168.79"/>
</g>
<!-- AuthenticationFeatureModule -->
<g id="node3" class="node">
<title>AuthenticationFeatureModule</title>
<polygon fill="#8dd3c7" stroke="black" points="208.23,-84.8 205.23,-88.8 184.23,-88.8 181.23,-84.8 23.77,-84.8 23.77,-48.8 208.23,-48.8 208.23,-84.8"/>
<text text-anchor="middle" x="116" y="-62.6" font-family="Times,serif" font-size="14.00">AuthenticationFeatureModule</text>
</g>
<!-- AuthenticationFeatureModule&#45;&gt;AuthenticationUiFeatureModule -->
<g id="edge2" class="edge">
<title>AuthenticationFeatureModule&#45;&gt;AuthenticationUiFeatureModule</title>
<path fill="none" stroke="black" d="M167,-84.91C167,-84.91 167,-103.79 167,-103.79"/>
<polygon fill="black" stroke="black" points="163.5,-103.79 167,-113.79 170.5,-103.79 163.5,-103.79"/>
</g>
</g>
</svg>
