<?xml version="1.0" encoding="UTF-8" standalone="no"?>
<!DOCTYPE svg PUBLIC "-//W3C//DTD SVG 1.1//EN"
 "http://www.w3.org/Graphics/SVG/1.1/DTD/svg11.dtd">
<!-- Generated by graphviz version 5.0.0 (20220707.1540)
 -->
<!-- Title: dependencies Pages: 1 -->
<svg width="1459pt" height="247pt"
 viewBox="0.00 0.00 1459.00 246.80" xmlns="http://www.w3.org/2000/svg" xmlns:xlink="http://www.w3.org/1999/xlink">
<g id="graph0" class="graph" transform="scale(1 1) rotate(0) translate(4 242.8)">
<title>dependencies</title>
<polygon fill="white" stroke="transparent" points="-4,4 -4,-242.8 1455,-242.8 1455,4 -4,4"/>
<text text-anchor="middle" x="725.5" y="-8.2" font-family="sans-serif" font-size="14.00">dependencies</text>
<g id="clust1" class="cluster">
<title>cluster_AnalysisUiFeatureModule</title>
<polygon fill="none" stroke="black" stroke-dasharray="1,5" points="8,-32.8 8,-230.8 1443,-230.8 1443,-32.8 8,-32.8"/>
</g>
<g id="clust8" class="cluster">
<title>cluster_AnalysisUiFeatureModule_imports</title>
<polygon fill="none" stroke="black" points="1158,-40.8 1158,-92.8 1435,-92.8 1435,-40.8 1158,-40.8"/>
</g>
<g id="clust2" class="cluster">
<title>cluster_AnalysisUiFeatureModule_declarations</title>
<polygon fill="none" stroke="black" points="16,-40.8 16,-92.8 1150,-92.8 1150,-40.8 16,-40.8"/>
</g>
<g id="clust9" class="cluster">
<title>cluster_AnalysisUiFeatureModule_exports</title>
<polygon fill="none" stroke="black" points="652,-170.8 652,-222.8 1034,-222.8 1034,-170.8 652,-170.8"/>
</g>
<!-- AnalysisMenuComponent -->
<g id="node1" class="node">
<title>AnalysisMenuComponent</title>
<polygon fill="#ffffb3" stroke="black" points="1142.49,-84.8 979.51,-84.8 979.51,-48.8 1142.49,-48.8 1142.49,-84.8"/>
<text text-anchor="middle" x="1061" y="-62.6" font-family="Times,serif" font-size="14.00">AnalysisMenuComponent</text>
</g>
<!-- AnalysisUiFeatureModule -->
<g id="node6" class="node">
<title>AnalysisUiFeatureModule</title>
<polygon fill="#8dd3c7" stroke="black" points="929.03,-149.8 926.03,-153.8 905.03,-153.8 902.03,-149.8 764.97,-149.8 764.97,-113.8 929.03,-113.8 929.03,-149.8"/>
<text text-anchor="middle" x="847" y="-127.6" font-family="Times,serif" font-size="14.00">AnalysisUiFeatureModule</text>
</g>
<!-- AnalysisMenuComponent&#45;&gt;AnalysisUiFeatureModule -->
<g id="edge1" class="edge">
<title>AnalysisMenuComponent&#45;&gt;AnalysisUiFeatureModule</title>
<path fill="none" stroke="black" d="M1002.88,-84.83C1002.88,-101.2 1002.88,-122.8 1002.88,-122.8 1002.88,-122.8 939.05,-122.8 939.05,-122.8"/>
<polygon fill="black" stroke="black" points="939.05,-119.3 929.05,-122.8 939.05,-126.3 939.05,-119.3"/>
</g>
<!-- AnalysisMonthlyBalancesComponent -->
<g id="node2" class="node">
<title>AnalysisMonthlyBalancesComponent</title>
<polygon fill="#ffffb3" stroke="black" points="961.59,-84.8 732.41,-84.8 732.41,-48.8 961.59,-48.8 961.59,-84.8"/>
<text text-anchor="middle" x="847" y="-62.6" font-family="Times,serif" font-size="14.00">AnalysisMonthlyBalancesComponent</text>
</g>
<!-- AnalysisMonthlyBalancesComponent&#45;&gt;AnalysisUiFeatureModule -->
<g id="edge2" class="edge">
<title>AnalysisMonthlyBalancesComponent&#45;&gt;AnalysisUiFeatureModule</title>
<path fill="none" stroke="black" d="M847,-84.91C847,-84.91 847,-103.79 847,-103.79"/>
<polygon fill="black" stroke="black" points="843.5,-103.79 847,-113.79 850.5,-103.79 843.5,-103.79"/>
</g>
<!-- AnalysisMonthlyComponent -->
<g id="node3" class="node">
<title>AnalysisMonthlyComponent</title>
<polygon fill="#ffffb3" stroke="black" points="714.06,-84.8 535.94,-84.8 535.94,-48.8 714.06,-48.8 714.06,-84.8"/>
<text text-anchor="middle" x="625" y="-62.6" font-family="Times,serif" font-size="14.00">AnalysisMonthlyComponent</text>
</g>
<!-- AnalysisMonthlyComponent&#45;&gt;AnalysisUiFeatureModule -->
<g id="edge3" class="edge">
<title>AnalysisMonthlyComponent&#45;&gt;AnalysisUiFeatureModule</title>
<path fill="none" stroke="black" d="M687.12,-84.83C687.12,-101.2 687.12,-122.8 687.12,-122.8 687.12,-122.8 754.72,-122.8 754.72,-122.8"/>
<polygon fill="black" stroke="black" points="754.72,-126.3 764.72,-122.8 754.72,-119.3 754.72,-126.3"/>
</g>
<!-- AnalysisMonthlyForecastsComponent -->
<g id="node4" class="node">
<title>AnalysisMonthlyForecastsComponent</title>
<polygon fill="#ffffb3" stroke="black" points="517.93,-84.8 286.07,-84.8 286.07,-48.8 517.93,-48.8 517.93,-84.8"/>
<text text-anchor="middle" x="402" y="-62.6" font-family="Times,serif" font-size="14.00">AnalysisMonthlyForecastsComponent</text>
</g>
<!-- AnalysisMonthlyForecastsComponent&#45;&gt;AnalysisUiFeatureModule -->
<g id="edge4" class="edge">
<title>AnalysisMonthlyForecastsComponent&#45;&gt;AnalysisUiFeatureModule</title>
<path fill="none" stroke="black" d="M402,-84.91C402,-104.14 402,-131.8 402,-131.8 402,-131.8 754.86,-131.8 754.86,-131.8"/>
<polygon fill="black" stroke="black" points="754.86,-135.3 764.86,-131.8 754.86,-128.3 754.86,-135.3"/>
</g>
<!-- AnalysisMonthlyMovementsComponent -->
<g id="node5" class="node">
<title>AnalysisMonthlyMovementsComponent</title>
<polygon fill="#ffffb3" stroke="black" points="268.16,-84.8 23.84,-84.8 23.84,-48.8 268.16,-48.8 268.16,-84.8"/>
<text text-anchor="middle" x="146" y="-62.6" font-family="Times,serif" font-size="14.00">AnalysisMonthlyMovementsComponent</text>
</g>
<!-- AnalysisMonthlyMovementsComponent&#45;&gt;AnalysisUiFeatureModule -->
<g id="edge5" class="edge">
<title>AnalysisMonthlyMovementsComponent&#45;&gt;AnalysisUiFeatureModule</title>
<path fill="none" stroke="black" d="M146,-85.09C146,-107.01 146,-140.8 146,-140.8 146,-140.8 754.87,-140.8 754.87,-140.8"/>
<polygon fill="black" stroke="black" points="754.87,-144.3 764.87,-140.8 754.87,-137.3 754.87,-144.3"/>
</g>
<!-- AnalysisMenuComponent  -->
<g id="node9" class="node">
<title>AnalysisMenuComponent </title>
<polygon fill="#fb8072" stroke="black" points="1026.49,-214.8 859.51,-214.8 859.51,-178.8 1026.49,-178.8 1026.49,-214.8"/>
<text text-anchor="middle" x="943" y="-192.6" font-family="Times,serif" font-size="14.00">AnalysisMenuComponent </text>
</g>
<!-- AnalysisUiFeatureModule&#45;&gt;AnalysisMenuComponent  -->
<g id="edge8" class="edge">
<title>AnalysisUiFeatureModule&#45;&gt;AnalysisMenuComponent </title>
<path fill="none" stroke="black" stroke-dasharray="5,2" d="M894.51,-149.91C894.51,-149.91 894.51,-168.79 894.51,-168.79"/>
<polygon fill="black" stroke="black" points="891.01,-168.79 894.51,-178.79 898.01,-168.79 891.01,-168.79"/>
</g>
<!-- AnalysisMonthlyComponent  -->
<g id="node10" class="node">
<title>AnalysisMonthlyComponent </title>
<polygon fill="#fb8072" stroke="black" points="842.06,-214.8 659.94,-214.8 659.94,-178.8 842.06,-178.8 842.06,-214.8"/>
<text text-anchor="middle" x="751" y="-192.6" font-family="Times,serif" font-size="14.00">AnalysisMonthlyComponent </text>
</g>
<!-- AnalysisUiFeatureModule&#45;&gt;AnalysisMonthlyComponent  -->
<g id="edge9" class="edge">
<title>AnalysisUiFeatureModule&#45;&gt;AnalysisMonthlyComponent </title>
<path fill="none" stroke="black" stroke-dasharray="5,2" d="M803.38,-149.91C803.38,-149.91 803.38,-168.79 803.38,-168.79"/>
<polygon fill="black" stroke="black" points="799.88,-168.79 803.38,-178.79 806.88,-168.79 799.88,-168.79"/>
</g>
<!-- AnalysisFeatureModule -->
<g id="node7" class="node">
<title>AnalysisFeatureModule</title>
<polygon fill="#8dd3c7" stroke="black" points="1427.03,-84.8 1424.03,-88.8 1403.03,-88.8 1400.03,-84.8 1276.97,-84.8 1276.97,-48.8 1427.03,-48.8 1427.03,-84.8"/>
<text text-anchor="middle" x="1352" y="-62.6" font-family="Times,serif" font-size="14.00">AnalysisFeatureModule</text>
</g>
<!-- AnalysisFeatureModule&#45;&gt;AnalysisUiFeatureModule -->
<g id="edge6" class="edge">
<title>AnalysisFeatureModule&#45;&gt;AnalysisUiFeatureModule</title>
<path fill="none" stroke="black" d="M1352,-85.09C1352,-107.01 1352,-140.8 1352,-140.8 1352,-140.8 939.26,-140.8 939.26,-140.8"/>
<polygon fill="black" stroke="black" points="939.26,-137.3 929.26,-140.8 939.26,-144.3 939.26,-137.3"/>
</g>
<!-- CurrencyPipe -->
<g id="node8" class="node">
<title>CurrencyPipe</title>
<polygon fill="#8dd3c7" stroke="black" points="1258.48,-84.8 1255.48,-88.8 1234.48,-88.8 1231.48,-84.8 1165.52,-84.8 1165.52,-48.8 1258.48,-48.8 1258.48,-84.8"/>
<text text-anchor="middle" x="1212" y="-62.6" font-family="Times,serif" font-size="14.00">CurrencyPipe</text>
</g>
<!-- CurrencyPipe&#45;&gt;AnalysisUiFeatureModule -->
<g id="edge7" class="edge">
<title>CurrencyPipe&#45;&gt;AnalysisUiFeatureModule</title>
<path fill="none" stroke="black" d="M1212,-84.91C1212,-104.14 1212,-131.8 1212,-131.8 1212,-131.8 939.37,-131.8 939.37,-131.8"/>
<polygon fill="black" stroke="black" points="939.37,-128.3 929.37,-131.8 939.37,-135.3 939.37,-128.3"/>
</g>
</g>
</svg>
