<?xml version="1.0" encoding="UTF-8" standalone="no"?>
<!DOCTYPE svg PUBLIC "-//W3C//DTD SVG 1.1//EN"
 "http://www.w3.org/Graphics/SVG/1.1/DTD/svg11.dtd">
<!-- Generated by graphviz version 5.0.0 (20220707.1540)
 -->
<!-- Title: dependencies Pages: 1 -->
<svg width="776pt" height="247pt"
 viewBox="0.00 0.00 776.00 246.80" xmlns="http://www.w3.org/2000/svg" xmlns:xlink="http://www.w3.org/1999/xlink">
<g id="graph0" class="graph" transform="scale(1 1) rotate(0) translate(4 242.8)">
<title>dependencies</title>
<polygon fill="white" stroke="transparent" points="-4,4 -4,-242.8 772,-242.8 772,4 -4,4"/>
<text text-anchor="middle" x="384" y="-8.2" font-family="sans-serif" font-size="14.00">dependencies</text>
<g id="clust1" class="cluster">
<title>cluster_AccountsUiFeatureModule</title>
<polygon fill="none" stroke="black" stroke-dasharray="1,5" points="8,-32.8 8,-230.8 760,-230.8 760,-32.8 8,-32.8"/>
</g>
<g id="clust5" class="cluster">
<title>cluster_AccountsUiFeatureModule_imports</title>
<polygon fill="none" stroke="black" points="388,-40.8 388,-92.8 752,-92.8 752,-40.8 388,-40.8"/>
</g>
<g id="clust2" class="cluster">
<title>cluster_AccountsUiFeatureModule_declarations</title>
<polygon fill="none" stroke="black" points="16,-40.8 16,-92.8 380,-92.8 380,-40.8 16,-40.8"/>
</g>
<g id="clust6" class="cluster">
<title>cluster_AccountsUiFeatureModule_exports</title>
<polygon fill="none" stroke="black" points="195,-170.8 195,-222.8 567,-222.8 567,-170.8 195,-170.8"/>
</g>
<!-- AccountsFormComponent -->
<g id="node1" class="node">
<title>AccountsFormComponent</title>
<polygon fill="#ffffb3" stroke="black" points="372.05,-84.8 207.95,-84.8 207.95,-48.8 372.05,-48.8 372.05,-84.8"/>
<text text-anchor="middle" x="290" y="-62.6" font-family="Times,serif" font-size="14.00">AccountsFormComponent</text>
</g>
<!-- AccountsUiFeatureModule -->
<g id="node3" class="node">
<title>AccountsUiFeatureModule</title>
<polygon fill="#8dd3c7" stroke="black" points="465.41,-149.8 462.41,-153.8 441.41,-153.8 438.41,-149.8 296.59,-149.8 296.59,-113.8 465.41,-113.8 465.41,-149.8"/>
<text text-anchor="middle" x="381" y="-127.6" font-family="Times,serif" font-size="14.00">AccountsUiFeatureModule</text>
</g>
<!-- AccountsFormComponent&#45;&gt;AccountsUiFeatureModule -->
<g id="edge1" class="edge">
<title>AccountsFormComponent&#45;&gt;AccountsUiFeatureModule</title>
<path fill="none" stroke="black" d="M334.53,-84.91C334.53,-84.91 334.53,-103.79 334.53,-103.79"/>
<polygon fill="black" stroke="black" points="331.03,-103.79 334.53,-113.79 338.03,-103.79 331.03,-103.79"/>
</g>
<!-- AccountsTableComponent -->
<g id="node2" class="node">
<title>AccountsTableComponent</title>
<polygon fill="#ffffb3" stroke="black" points="190.08,-84.8 23.92,-84.8 23.92,-48.8 190.08,-48.8 190.08,-84.8"/>
<text text-anchor="middle" x="107" y="-62.6" font-family="Times,serif" font-size="14.00">AccountsTableComponent</text>
</g>
<!-- AccountsTableComponent&#45;&gt;AccountsUiFeatureModule -->
<g id="edge2" class="edge">
<title>AccountsTableComponent&#45;&gt;AccountsUiFeatureModule</title>
<path fill="none" stroke="black" d="M107,-84.91C107,-104.14 107,-131.8 107,-131.8 107,-131.8 286.56,-131.8 286.56,-131.8"/>
<polygon fill="black" stroke="black" points="286.56,-135.3 296.56,-131.8 286.56,-128.3 286.56,-135.3"/>
</g>
<!-- AccountsFormComponent  -->
<g id="node6" class="node">
<title>AccountsFormComponent </title>
<polygon fill="#fb8072" stroke="black" points="559.04,-214.8 390.96,-214.8 390.96,-178.8 559.04,-178.8 559.04,-214.8"/>
<text text-anchor="middle" x="475" y="-192.6" font-family="Times,serif" font-size="14.00">AccountsFormComponent </text>
</g>
<!-- AccountsUiFeatureModule&#45;&gt;AccountsFormComponent  -->
<g id="edge5" class="edge">
<title>AccountsUiFeatureModule&#45;&gt;AccountsFormComponent </title>
<path fill="none" stroke="black" stroke-dasharray="5,2" d="M428.09,-149.91C428.09,-149.91 428.09,-168.79 428.09,-168.79"/>
<polygon fill="black" stroke="black" points="424.59,-168.79 428.09,-178.79 431.59,-168.79 424.59,-168.79"/>
</g>
<!-- AccountsTableComponent  -->
<g id="node7" class="node">
<title>AccountsTableComponent </title>
<polygon fill="#fb8072" stroke="black" points="372.58,-214.8 203.42,-214.8 203.42,-178.8 372.58,-178.8 372.58,-214.8"/>
<text text-anchor="middle" x="288" y="-192.6" font-family="Times,serif" font-size="14.00">AccountsTableComponent </text>
</g>
<!-- AccountsUiFeatureModule&#45;&gt;AccountsTableComponent  -->
<g id="edge6" class="edge">
<title>AccountsUiFeatureModule&#45;&gt;AccountsTableComponent </title>
<path fill="none" stroke="black" stroke-dasharray="5,2" d="M334.79,-149.91C334.79,-149.91 334.79,-168.79 334.79,-168.79"/>
<polygon fill="black" stroke="black" points="331.29,-168.79 334.79,-178.79 338.29,-168.79 331.29,-168.79"/>
</g>
<!-- AccountsFeatureModule -->
<g id="node4" class="node">
<title>AccountsFeatureModule</title>
<polygon fill="#8dd3c7" stroke="black" points="744.41,-84.8 741.41,-88.8 720.41,-88.8 717.41,-84.8 589.59,-84.8 589.59,-48.8 744.41,-48.8 744.41,-84.8"/>
<text text-anchor="middle" x="667" y="-62.6" font-family="Times,serif" font-size="14.00">AccountsFeatureModule</text>
</g>
<!-- AccountsFeatureModule&#45;&gt;AccountsUiFeatureModule -->
<g id="edge3" class="edge">
<title>AccountsFeatureModule&#45;&gt;AccountsUiFeatureModule</title>
<path fill="none" stroke="black" d="M667,-84.91C667,-104.14 667,-131.8 667,-131.8 667,-131.8 475.26,-131.8 475.26,-131.8"/>
<polygon fill="black" stroke="black" points="475.26,-128.3 465.26,-131.8 475.26,-135.3 475.26,-128.3"/>
</g>
<!-- ValidationErrorsComponent -->
<g id="node5" class="node">
<title>ValidationErrorsComponent</title>
<polygon fill="#8dd3c7" stroke="black" points="571.91,-84.8 568.91,-88.8 547.91,-88.8 544.91,-84.8 396.09,-84.8 396.09,-48.8 571.91,-48.8 571.91,-84.8"/>
<text text-anchor="middle" x="484" y="-62.6" font-family="Times,serif" font-size="14.00">ValidationErrorsComponent</text>
</g>
<!-- ValidationErrorsComponent&#45;&gt;AccountsUiFeatureModule -->
<g id="edge4" class="edge">
<title>ValidationErrorsComponent&#45;&gt;AccountsUiFeatureModule</title>
<path fill="none" stroke="black" d="M430.75,-84.91C430.75,-84.91 430.75,-103.79 430.75,-103.79"/>
<polygon fill="black" stroke="black" points="427.25,-103.79 430.75,-113.79 434.25,-103.79 427.25,-103.79"/>
</g>
</g>
</svg>
