<?xml version="1.0" encoding="UTF-8" standalone="no"?>
<!DOCTYPE svg PUBLIC "-//W3C//DTD SVG 1.1//EN"
 "http://www.w3.org/Graphics/SVG/1.1/DTD/svg11.dtd">
<!-- Generated by graphviz version 5.0.0 (20220707.1540)
 -->
<!-- Title: dependencies Pages: 1 -->
<svg width="1150pt" height="174pt"
 viewBox="0.00 0.00 1150.00 173.80" xmlns="http://www.w3.org/2000/svg" xmlns:xlink="http://www.w3.org/1999/xlink">
<g id="graph0" class="graph" transform="scale(1 1) rotate(0) translate(4 169.8)">
<title>dependencies</title>
<polygon fill="white" stroke="transparent" points="-4,4 -4,-169.8 1146,-169.8 1146,4 -4,4"/>
<text text-anchor="middle" x="571" y="-8.2" font-family="sans-serif" font-size="14.00">dependencies</text>
<g id="clust1" class="cluster">
<title>cluster_AnalysisPageModule</title>
<polygon fill="none" stroke="black" stroke-dasharray="1,5" points="8,-32.8 8,-157.8 1134,-157.8 1134,-32.8 8,-32.8"/>
</g>
<g id="clust2" class="cluster">
<title>cluster_AnalysisPageModule_declarations</title>
<polygon fill="none" stroke="black" points="616,-40.8 616,-92.8 1126,-92.8 1126,-40.8 616,-40.8"/>
</g>
<g id="clust5" class="cluster">
<title>cluster_AnalysisPageModule_imports</title>
<polygon fill="none" stroke="black" points="16,-40.8 16,-92.8 608,-92.8 608,-40.8 16,-40.8"/>
</g>
<!-- AnalysisPageMenuLayoutComponent -->
<g id="node1" class="node">
<title>AnalysisPageMenuLayoutComponent</title>
<polygon fill="#ffffb3" stroke="black" points="1117.86,-84.8 888.14,-84.8 888.14,-48.8 1117.86,-48.8 1117.86,-84.8"/>
<text text-anchor="middle" x="1003" y="-62.6" font-family="Times,serif" font-size="14.00">AnalysisPageMenuLayoutComponent</text>
</g>
<!-- AnalysisPageModule -->
<g id="node3" class="node">
<title>AnalysisPageModule</title>
<polygon fill="#8dd3c7" stroke="black" points="577.77,-149.8 574.77,-153.8 553.77,-153.8 550.77,-149.8 442.23,-149.8 442.23,-113.8 577.77,-113.8 577.77,-149.8"/>
<text text-anchor="middle" x="510" y="-127.6" font-family="Times,serif" font-size="14.00">AnalysisPageModule</text>
</g>
<!-- AnalysisPageMenuLayoutComponent&#45;&gt;AnalysisPageModule -->
<g id="edge1" class="edge">
<title>AnalysisPageMenuLayoutComponent&#45;&gt;AnalysisPageModule</title>
<path fill="none" stroke="black" d="M1003,-85.08C1003,-106.12 1003,-137.8 1003,-137.8 1003,-137.8 587.77,-137.8 587.77,-137.8"/>
<polygon fill="black" stroke="black" points="587.77,-134.3 577.77,-137.8 587.77,-141.3 587.77,-134.3"/>
</g>
<!-- AnalysisPageMonthlyLayoutComponent -->
<g id="node2" class="node">
<title>AnalysisPageMonthlyLayoutComponent</title>
<polygon fill="#ffffb3" stroke="black" points="869.93,-84.8 624.07,-84.8 624.07,-48.8 869.93,-48.8 869.93,-84.8"/>
<text text-anchor="middle" x="747" y="-62.6" font-family="Times,serif" font-size="14.00">AnalysisPageMonthlyLayoutComponent</text>
</g>
<!-- AnalysisPageMonthlyLayoutComponent&#45;&gt;AnalysisPageModule -->
<g id="edge2" class="edge">
<title>AnalysisPageMonthlyLayoutComponent&#45;&gt;AnalysisPageModule</title>
<path fill="none" stroke="black" d="M747,-84.82C747,-102.17 747,-125.8 747,-125.8 747,-125.8 587.91,-125.8 587.91,-125.8"/>
<polygon fill="black" stroke="black" points="587.91,-122.3 577.91,-125.8 587.91,-129.3 587.91,-122.3"/>
</g>
<!-- AnalysisPageRoutingModule -->
<g id="node4" class="node">
<title>AnalysisPageRoutingModule</title>
<polygon fill="#8dd3c7" stroke="black" points="600.38,-84.8 597.38,-88.8 576.38,-88.8 573.38,-84.8 419.62,-84.8 419.62,-48.8 600.38,-48.8 600.38,-84.8"/>
<text text-anchor="middle" x="510" y="-62.6" font-family="Times,serif" font-size="14.00">AnalysisPageRoutingModule</text>
</g>
<!-- AnalysisPageRoutingModule&#45;&gt;AnalysisPageModule -->
<g id="edge3" class="edge">
<title>AnalysisPageRoutingModule&#45;&gt;AnalysisPageModule</title>
<path fill="none" stroke="black" d="M510,-84.91C510,-84.91 510,-103.79 510,-103.79"/>
<polygon fill="black" stroke="black" points="506.5,-103.79 510,-113.79 513.5,-103.79 506.5,-103.79"/>
</g>
<!-- AnalysisUiFeatureModule -->
<g id="node5" class="node">
<title>AnalysisUiFeatureModule</title>
<polygon fill="#8dd3c7" stroke="black" points="401.03,-84.8 398.03,-88.8 377.03,-88.8 374.03,-84.8 236.97,-84.8 236.97,-48.8 401.03,-48.8 401.03,-84.8"/>
<text text-anchor="middle" x="319" y="-62.6" font-family="Times,serif" font-size="14.00">AnalysisUiFeatureModule</text>
</g>
<!-- AnalysisUiFeatureModule&#45;&gt;AnalysisPageModule -->
<g id="edge4" class="edge">
<title>AnalysisUiFeatureModule&#45;&gt;AnalysisPageModule</title>
<path fill="none" stroke="black" d="M319,-84.82C319,-102.17 319,-125.8 319,-125.8 319,-125.8 432.12,-125.8 432.12,-125.8"/>
<polygon fill="black" stroke="black" points="432.12,-129.3 442.12,-125.8 432.12,-122.3 432.12,-129.3"/>
</g>
<!-- SharedBreadcrumbsComponent -->
<g id="node6" class="node">
<title>SharedBreadcrumbsComponent</title>
<polygon fill="#8dd3c7" stroke="black" points="218.35,-84.8 215.35,-88.8 194.35,-88.8 191.35,-84.8 23.65,-84.8 23.65,-48.8 218.35,-48.8 218.35,-84.8"/>
<text text-anchor="middle" x="121" y="-62.6" font-family="Times,serif" font-size="14.00">SharedBreadcrumbsComponent</text>
</g>
<!-- SharedBreadcrumbsComponent&#45;&gt;AnalysisPageModule -->
<g id="edge5" class="edge">
<title>SharedBreadcrumbsComponent&#45;&gt;AnalysisPageModule</title>
<path fill="none" stroke="black" d="M121,-85.08C121,-106.12 121,-137.8 121,-137.8 121,-137.8 431.8,-137.8 431.8,-137.8"/>
<polygon fill="black" stroke="black" points="431.8,-141.3 441.8,-137.8 431.8,-134.3 431.8,-141.3"/>
</g>
</g>
</svg>
