<?xml version="1.0" encoding="UTF-8" standalone="no"?>
<!DOCTYPE svg PUBLIC "-//W3C//DTD SVG 1.1//EN"
 "http://www.w3.org/Graphics/SVG/1.1/DTD/svg11.dtd">
<!-- Generated by graphviz version 5.0.0 (20220707.1540)
 -->
<!-- Title: dependencies Pages: 1 -->
<svg width="1150pt" height="174pt"
 viewBox="0.00 0.00 1150.00 173.80" xmlns="http://www.w3.org/2000/svg" xmlns:xlink="http://www.w3.org/1999/xlink">
<g id="graph0" class="graph" transform="scale(1 1) rotate(0) translate(4 169.8)">
<title>dependencies</title>
<polygon fill="white" stroke="transparent" points="-4,4 -4,-169.8 1146,-169.8 1146,4 -4,4"/>
<text text-anchor="middle" x="571" y="-8.2" font-family="sans-serif" font-size="14.00">dependencies</text>
<g id="clust1" class="cluster">
<title>cluster_AnalysisPageModule</title>
<polygon fill="none" stroke="black" stroke-dasharray="1,5" points="8,-32.8 8,-157.8 1134,-157.8 1134,-32.8 8,-32.8"/>
</g>
<g id="clust5" class="cluster">
<title>cluster_AnalysisPageModule_imports</title>
<polygon fill="none" stroke="black" points="534,-40.8 534,-92.8 1126,-92.8 1126,-40.8 534,-40.8"/>
</g>
<g id="clust2" class="cluster">
<title>cluster_AnalysisPageModule_declarations</title>
<polygon fill="none" stroke="black" points="16,-40.8 16,-92.8 526,-92.8 526,-40.8 16,-40.8"/>
</g>
<!-- AnalysisPageMenuLayoutComponent -->
<g id="node1" class="node">
<title>AnalysisPageMenuLayoutComponent</title>
<polygon fill="#ffffb3" stroke="black" points="517.86,-84.8 288.14,-84.8 288.14,-48.8 517.86,-48.8 517.86,-84.8"/>
<text text-anchor="middle" x="403" y="-62.6" font-family="Times,serif" font-size="14.00">AnalysisPageMenuLayoutComponent</text>
</g>
<!-- AnalysisPageModule -->
<g id="node3" class="node">
<title>AnalysisPageModule</title>
<polygon fill="#8dd3c7" stroke="black" points="706.77,-149.8 703.77,-153.8 682.77,-153.8 679.77,-149.8 571.23,-149.8 571.23,-113.8 706.77,-113.8 706.77,-149.8"/>
<text text-anchor="middle" x="639" y="-127.6" font-family="Times,serif" font-size="14.00">AnalysisPageModule</text>
</g>
<!-- AnalysisPageMenuLayoutComponent&#45;&gt;AnalysisPageModule -->
<g id="edge1" class="edge">
<title>AnalysisPageMenuLayoutComponent&#45;&gt;AnalysisPageModule</title>
<path fill="none" stroke="black" d="M403,-84.82C403,-102.17 403,-125.8 403,-125.8 403,-125.8 561.06,-125.8 561.06,-125.8"/>
<polygon fill="black" stroke="black" points="561.06,-129.3 571.06,-125.8 561.06,-122.3 561.06,-129.3"/>
</g>
<!-- AnalysisPageMonthlyLayoutComponent -->
<g id="node2" class="node">
<title>AnalysisPageMonthlyLayoutComponent</title>
<polygon fill="#ffffb3" stroke="black" points="269.93,-84.8 24.07,-84.8 24.07,-48.8 269.93,-48.8 269.93,-84.8"/>
<text text-anchor="middle" x="147" y="-62.6" font-family="Times,serif" font-size="14.00">AnalysisPageMonthlyLayoutComponent</text>
</g>
<!-- AnalysisPageMonthlyLayoutComponent&#45;&gt;AnalysisPageModule -->
<g id="edge2" class="edge">
<title>AnalysisPageMonthlyLayoutComponent&#45;&gt;AnalysisPageModule</title>
<path fill="none" stroke="black" d="M147,-85.08C147,-106.12 147,-137.8 147,-137.8 147,-137.8 561.11,-137.8 561.11,-137.8"/>
<polygon fill="black" stroke="black" points="561.11,-141.3 571.11,-137.8 561.11,-134.3 561.11,-141.3"/>
</g>
<!-- AnalysisPageRoutingModule -->
<g id="node4" class="node">
<title>AnalysisPageRoutingModule</title>
<polygon fill="#8dd3c7" stroke="black" points="1118.38,-84.8 1115.38,-88.8 1094.38,-88.8 1091.38,-84.8 937.62,-84.8 937.62,-48.8 1118.38,-48.8 1118.38,-84.8"/>
<text text-anchor="middle" x="1028" y="-62.6" font-family="Times,serif" font-size="14.00">AnalysisPageRoutingModule</text>
</g>
<!-- AnalysisPageRoutingModule&#45;&gt;AnalysisPageModule -->
<g id="edge3" class="edge">
<title>AnalysisPageRoutingModule&#45;&gt;AnalysisPageModule</title>
<path fill="none" stroke="black" d="M1028,-85.08C1028,-106.12 1028,-137.8 1028,-137.8 1028,-137.8 717.2,-137.8 717.2,-137.8"/>
<polygon fill="black" stroke="black" points="717.2,-134.3 707.2,-137.8 717.2,-141.3 717.2,-134.3"/>
</g>
<!-- AnalysisUiFeatureModule -->
<g id="node5" class="node">
<title>AnalysisUiFeatureModule</title>
<polygon fill="#8dd3c7" stroke="black" points="919.03,-84.8 916.03,-88.8 895.03,-88.8 892.03,-84.8 754.97,-84.8 754.97,-48.8 919.03,-48.8 919.03,-84.8"/>
<text text-anchor="middle" x="837" y="-62.6" font-family="Times,serif" font-size="14.00">AnalysisUiFeatureModule</text>
</g>
<!-- AnalysisUiFeatureModule&#45;&gt;AnalysisPageModule -->
<g id="edge4" class="edge">
<title>AnalysisUiFeatureModule&#45;&gt;AnalysisPageModule</title>
<path fill="none" stroke="black" d="M837,-84.82C837,-102.17 837,-125.8 837,-125.8 837,-125.8 716.86,-125.8 716.86,-125.8"/>
<polygon fill="black" stroke="black" points="716.86,-122.3 706.86,-125.8 716.86,-129.3 716.86,-122.3"/>
</g>
<!-- SharedBreadcrumbsComponent -->
<g id="node6" class="node">
<title>SharedBreadcrumbsComponent</title>
<polygon fill="#8dd3c7" stroke="black" points="736.35,-84.8 733.35,-88.8 712.35,-88.8 709.35,-84.8 541.65,-84.8 541.65,-48.8 736.35,-48.8 736.35,-84.8"/>
<text text-anchor="middle" x="639" y="-62.6" font-family="Times,serif" font-size="14.00">SharedBreadcrumbsComponent</text>
</g>
<!-- SharedBreadcrumbsComponent&#45;&gt;AnalysisPageModule -->
<g id="edge5" class="edge">
<title>SharedBreadcrumbsComponent&#45;&gt;AnalysisPageModule</title>
<path fill="none" stroke="black" d="M639,-84.91C639,-84.91 639,-103.79 639,-103.79"/>
<polygon fill="black" stroke="black" points="635.5,-103.79 639,-113.79 642.5,-103.79 635.5,-103.79"/>
</g>
</g>
</svg>
