<?xml version="1.0" encoding="UTF-8" standalone="no"?>
<!DOCTYPE svg PUBLIC "-//W3C//DTD SVG 1.1//EN"
 "http://www.w3.org/Graphics/SVG/1.1/DTD/svg11.dtd">
<!-- Generated by graphviz version 5.0.0 (20220707.1540)
 -->
<!-- Title: dependencies Pages: 1 -->
<svg width="806pt" height="174pt"
 viewBox="0.00 0.00 806.00 173.80" xmlns="http://www.w3.org/2000/svg" xmlns:xlink="http://www.w3.org/1999/xlink">
<g id="graph0" class="graph" transform="scale(1 1) rotate(0) translate(4 169.8)">
<title>dependencies</title>
<polygon fill="white" stroke="transparent" points="-4,4 -4,-169.8 802,-169.8 802,4 -4,4"/>
<text text-anchor="middle" x="399" y="-8.2" font-family="sans-serif" font-size="14.00">dependencies</text>
<g id="clust1" class="cluster">
<title>cluster_MovementsFeatureModule</title>
<polygon fill="none" stroke="black" stroke-dasharray="1,5" points="8,-32.8 8,-157.8 790,-157.8 790,-32.8 8,-32.8"/>
</g>
<g id="clust3" class="cluster">
<title>cluster_MovementsFeatureModule_imports</title>
<polygon fill="none" stroke="black" points="432,-40.8 432,-92.8 782,-92.8 782,-40.8 432,-40.8"/>
</g>
<g id="clust6" class="cluster">
<title>cluster_MovementsFeatureModule_providers</title>
<polygon fill="none" stroke="black" points="16,-40.8 16,-92.8 424,-92.8 424,-40.8 16,-40.8"/>
</g>
<!-- AccountsFeatureModule -->
<g id="node1" class="node">
<title>AccountsFeatureModule</title>
<polygon fill="#8dd3c7" stroke="black" points="774.41,-84.8 771.41,-88.8 750.41,-88.8 747.41,-84.8 619.59,-84.8 619.59,-48.8 774.41,-48.8 774.41,-84.8"/>
<text text-anchor="middle" x="697" y="-62.6" font-family="Times,serif" font-size="14.00">AccountsFeatureModule</text>
</g>
<!-- MovementsFeatureModule -->
<g id="node3" class="node">
<title>MovementsFeatureModule</title>
<polygon fill="#8dd3c7" stroke="black" points="508.64,-149.8 505.64,-153.8 484.64,-153.8 481.64,-149.8 341.36,-149.8 341.36,-113.8 508.64,-113.8 508.64,-149.8"/>
<text text-anchor="middle" x="425" y="-127.6" font-family="Times,serif" font-size="14.00">MovementsFeatureModule</text>
</g>
<!-- AccountsFeatureModule&#45;&gt;MovementsFeatureModule -->
<g id="edge1" class="edge">
<title>AccountsFeatureModule&#45;&gt;MovementsFeatureModule</title>
<path fill="none" stroke="black" d="M697,-84.91C697,-104.14 697,-131.8 697,-131.8 697,-131.8 518.83,-131.8 518.83,-131.8"/>
<polygon fill="black" stroke="black" points="518.83,-128.3 508.83,-131.8 518.83,-135.3 518.83,-128.3"/>
</g>
<!-- CategoriesFeatureModule -->
<g id="node2" class="node">
<title>CategoriesFeatureModule</title>
<polygon fill="#8dd3c7" stroke="black" points="601.9,-84.8 598.9,-88.8 577.9,-88.8 574.9,-84.8 440.1,-84.8 440.1,-48.8 601.9,-48.8 601.9,-84.8"/>
<text text-anchor="middle" x="521" y="-62.6" font-family="Times,serif" font-size="14.00">CategoriesFeatureModule</text>
</g>
<!-- CategoriesFeatureModule&#45;&gt;MovementsFeatureModule -->
<g id="edge2" class="edge">
<title>CategoriesFeatureModule&#45;&gt;MovementsFeatureModule</title>
<path fill="none" stroke="black" d="M474.56,-84.91C474.56,-84.91 474.56,-103.79 474.56,-103.79"/>
<polygon fill="black" stroke="black" points="471.06,-103.79 474.56,-113.79 478.06,-103.79 471.06,-103.79"/>
</g>
<!-- MovementsService -->
<g id="node4" class="node">
<title>MovementsService</title>
<ellipse fill="#fdb462" stroke="black" cx="330" cy="-66.8" rx="85.68" ry="18"/>
<text text-anchor="middle" x="330" y="-62.6" font-family="Times,serif" font-size="14.00">MovementsService</text>
</g>
<!-- MovementsService&#45;&gt;MovementsFeatureModule -->
<g id="edge3" class="edge">
<title>MovementsService&#45;&gt;MovementsFeatureModule</title>
<path fill="none" stroke="black" d="M378.39,-81.88C378.39,-81.88 378.39,-103.56 378.39,-103.56"/>
<polygon fill="black" stroke="black" points="374.89,-103.56 378.39,-113.56 381.89,-103.56 374.89,-103.56"/>
</g>
<!-- MovementsTranformer -->
<g id="node5" class="node">
<title>MovementsTranformer</title>
<ellipse fill="#fdb462" stroke="black" cx="125" cy="-66.8" rx="101.27" ry="18"/>
<text text-anchor="middle" x="125" y="-62.6" font-family="Times,serif" font-size="14.00">MovementsTranformer</text>
</g>
<!-- MovementsTranformer&#45;&gt;MovementsFeatureModule -->
<g id="edge4" class="edge">
<title>MovementsTranformer&#45;&gt;MovementsFeatureModule</title>
<path fill="none" stroke="black" d="M125,-84.91C125,-104.14 125,-131.8 125,-131.8 125,-131.8 331.03,-131.8 331.03,-131.8"/>
<polygon fill="black" stroke="black" points="331.03,-135.3 341.03,-131.8 331.03,-128.3 331.03,-135.3"/>
</g>
</g>
</svg>
