<?xml version="1.0" encoding="UTF-8" standalone="no"?>
<!DOCTYPE svg PUBLIC "-//W3C//DTD SVG 1.1//EN"
 "http://www.w3.org/Graphics/SVG/1.1/DTD/svg11.dtd">
<!-- Generated by graphviz version 5.0.0 (20220707.1540)
 -->
<!-- Title: dependencies Pages: 1 -->
<svg width="858pt" height="174pt"
 viewBox="0.00 0.00 858.00 173.80" xmlns="http://www.w3.org/2000/svg" xmlns:xlink="http://www.w3.org/1999/xlink">
<g id="graph0" class="graph" transform="scale(1 1) rotate(0) translate(4 169.8)">
<title>dependencies</title>
<polygon fill="white" stroke="transparent" points="-4,4 -4,-169.8 854,-169.8 854,4 -4,4"/>
<text text-anchor="middle" x="425" y="-8.2" font-family="sans-serif" font-size="14.00">dependencies</text>
<g id="clust1" class="cluster">
<title>cluster_LoginPageModule</title>
<polygon fill="none" stroke="black" stroke-dasharray="1,5" points="8,-32.8 8,-157.8 842,-157.8 842,-32.8 8,-32.8"/>
</g>
<g id="clust2" class="cluster">
<title>cluster_LoginPageModule_declarations</title>
<polygon fill="none" stroke="black" points="634,-40.8 634,-92.8 834,-92.8 834,-40.8 634,-40.8"/>
</g>
<g id="clust4" class="cluster">
<title>cluster_LoginPageModule_imports</title>
<polygon fill="none" stroke="black" points="16,-40.8 16,-92.8 626,-92.8 626,-40.8 16,-40.8"/>
</g>
<!-- LoginFormLayoutComponent -->
<g id="node1" class="node">
<title>LoginFormLayoutComponent</title>
<polygon fill="#ffffb3" stroke="black" points="826.27,-84.8 641.73,-84.8 641.73,-48.8 826.27,-48.8 826.27,-84.8"/>
<text text-anchor="middle" x="734" y="-62.6" font-family="Times,serif" font-size="14.00">LoginFormLayoutComponent</text>
</g>
<!-- LoginPageModule -->
<g id="node2" class="node">
<title>LoginPageModule</title>
<polygon fill="#8dd3c7" stroke="black" points="479.21,-149.8 476.21,-153.8 455.21,-153.8 452.21,-149.8 358.79,-149.8 358.79,-113.8 479.21,-113.8 479.21,-149.8"/>
<text text-anchor="middle" x="419" y="-127.6" font-family="Times,serif" font-size="14.00">LoginPageModule</text>
</g>
<!-- LoginFormLayoutComponent&#45;&gt;LoginPageModule -->
<g id="edge1" class="edge">
<title>LoginFormLayoutComponent&#45;&gt;LoginPageModule</title>
<path fill="none" stroke="black" d="M734,-84.91C734,-104.14 734,-131.8 734,-131.8 734,-131.8 489.36,-131.8 489.36,-131.8"/>
<polygon fill="black" stroke="black" points="489.36,-128.3 479.36,-131.8 489.36,-135.3 489.36,-128.3"/>
</g>
<!-- AuthenticationUiFeatureModule -->
<g id="node3" class="node">
<title>AuthenticationUiFeatureModule</title>
<polygon fill="#8dd3c7" stroke="black" points="618.23,-84.8 615.23,-88.8 594.23,-88.8 591.23,-84.8 419.77,-84.8 419.77,-48.8 618.23,-48.8 618.23,-84.8"/>
<text text-anchor="middle" x="519" y="-62.6" font-family="Times,serif" font-size="14.00">AuthenticationUiFeatureModule</text>
</g>
<!-- AuthenticationUiFeatureModule&#45;&gt;LoginPageModule -->
<g id="edge2" class="edge">
<title>AuthenticationUiFeatureModule&#45;&gt;LoginPageModule</title>
<path fill="none" stroke="black" d="M449.37,-84.91C449.37,-84.91 449.37,-103.79 449.37,-103.79"/>
<polygon fill="black" stroke="black" points="445.87,-103.79 449.37,-113.79 452.87,-103.79 445.87,-103.79"/>
</g>
<!-- LoginPageRoutingModule -->
<g id="node4" class="node">
<title>LoginPageRoutingModule</title>
<polygon fill="#8dd3c7" stroke="black" points="401.82,-84.8 398.82,-88.8 377.82,-88.8 374.82,-84.8 236.18,-84.8 236.18,-48.8 401.82,-48.8 401.82,-84.8"/>
<text text-anchor="middle" x="319" y="-62.6" font-family="Times,serif" font-size="14.00">LoginPageRoutingModule</text>
</g>
<!-- LoginPageRoutingModule&#45;&gt;LoginPageModule -->
<g id="edge3" class="edge">
<title>LoginPageRoutingModule&#45;&gt;LoginPageModule</title>
<path fill="none" stroke="black" d="M380.28,-84.91C380.28,-84.91 380.28,-103.79 380.28,-103.79"/>
<polygon fill="black" stroke="black" points="376.78,-103.79 380.28,-113.79 383.78,-103.79 376.78,-103.79"/>
</g>
<!-- SharedBreadcrumbsComponent -->
<g id="node5" class="node">
<title>SharedBreadcrumbsComponent</title>
<polygon fill="#8dd3c7" stroke="black" points="218.35,-84.8 215.35,-88.8 194.35,-88.8 191.35,-84.8 23.65,-84.8 23.65,-48.8 218.35,-48.8 218.35,-84.8"/>
<text text-anchor="middle" x="121" y="-62.6" font-family="Times,serif" font-size="14.00">SharedBreadcrumbsComponent</text>
</g>
<!-- SharedBreadcrumbsComponent&#45;&gt;LoginPageModule -->
<g id="edge4" class="edge">
<title>SharedBreadcrumbsComponent&#45;&gt;LoginPageModule</title>
<path fill="none" stroke="black" d="M121,-84.91C121,-104.14 121,-131.8 121,-131.8 121,-131.8 348.7,-131.8 348.7,-131.8"/>
<polygon fill="black" stroke="black" points="348.7,-135.3 358.7,-131.8 348.7,-128.3 348.7,-135.3"/>
</g>
</g>
</svg>
