<?xml version="1.0" encoding="UTF-8" standalone="no"?>
<!DOCTYPE svg PUBLIC "-//W3C//DTD SVG 1.1//EN"
 "http://www.w3.org/Graphics/SVG/1.1/DTD/svg11.dtd">
<!-- Generated by graphviz version 5.0.0 (20220707.1540)
 -->
<!-- Title: dependencies Pages: 1 -->
<svg width="1136pt" height="174pt"
 viewBox="0.00 0.00 1136.00 173.80" xmlns="http://www.w3.org/2000/svg" xmlns:xlink="http://www.w3.org/1999/xlink">
<g id="graph0" class="graph" transform="scale(1 1) rotate(0) translate(4 169.8)">
<title>dependencies</title>
<polygon fill="white" stroke="transparent" points="-4,4 -4,-169.8 1132,-169.8 1132,4 -4,4"/>
<text text-anchor="middle" x="564" y="-8.2" font-family="sans-serif" font-size="14.00">dependencies</text>
<g id="clust1" class="cluster">
<title>cluster_AccountsPageModule</title>
<polygon fill="none" stroke="black" stroke-dasharray="1,5" points="8,-32.8 8,-157.8 1120,-157.8 1120,-32.8 8,-32.8"/>
</g>
<g id="clust2" class="cluster">
<title>cluster_AccountsPageModule_declarations</title>
<polygon fill="none" stroke="black" points="624,-40.8 624,-92.8 1112,-92.8 1112,-40.8 624,-40.8"/>
</g>
<g id="clust5" class="cluster">
<title>cluster_AccountsPageModule_imports</title>
<polygon fill="none" stroke="black" points="16,-40.8 16,-92.8 616,-92.8 616,-40.8 16,-40.8"/>
</g>
<!-- AccountsPageFormLayoutComponent -->
<g id="node1" class="node">
<title>AccountsPageFormLayoutComponent</title>
<polygon fill="#ffffb3" stroke="black" points="1103.91,-84.8 872.09,-84.8 872.09,-48.8 1103.91,-48.8 1103.91,-84.8"/>
<text text-anchor="middle" x="988" y="-62.6" font-family="Times,serif" font-size="14.00">AccountsPageFormLayoutComponent</text>
</g>
<!-- AccountsPageModule -->
<g id="node3" class="node">
<title>AccountsPageModule</title>
<polygon fill="#8dd3c7" stroke="black" points="585.64,-149.8 582.64,-153.8 561.64,-153.8 558.64,-149.8 446.36,-149.8 446.36,-113.8 585.64,-113.8 585.64,-149.8"/>
<text text-anchor="middle" x="516" y="-127.6" font-family="Times,serif" font-size="14.00">AccountsPageModule</text>
</g>
<!-- AccountsPageFormLayoutComponent&#45;&gt;AccountsPageModule -->
<g id="edge1" class="edge">
<title>AccountsPageFormLayoutComponent&#45;&gt;AccountsPageModule</title>
<path fill="none" stroke="black" d="M988,-85.08C988,-106.12 988,-137.8 988,-137.8 988,-137.8 595.65,-137.8 595.65,-137.8"/>
<polygon fill="black" stroke="black" points="595.65,-134.3 585.65,-137.8 595.65,-141.3 595.65,-134.3"/>
</g>
<!-- AccountsPageListLayoutComponent -->
<g id="node2" class="node">
<title>AccountsPageListLayoutComponent</title>
<polygon fill="#ffffb3" stroke="black" points="854.36,-84.8 631.64,-84.8 631.64,-48.8 854.36,-48.8 854.36,-84.8"/>
<text text-anchor="middle" x="743" y="-62.6" font-family="Times,serif" font-size="14.00">AccountsPageListLayoutComponent</text>
</g>
<!-- AccountsPageListLayoutComponent&#45;&gt;AccountsPageModule -->
<g id="edge2" class="edge">
<title>AccountsPageListLayoutComponent&#45;&gt;AccountsPageModule</title>
<path fill="none" stroke="black" d="M743,-84.82C743,-102.17 743,-125.8 743,-125.8 743,-125.8 595.65,-125.8 595.65,-125.8"/>
<polygon fill="black" stroke="black" points="595.65,-122.3 585.65,-125.8 595.65,-129.3 595.65,-122.3"/>
</g>
<!-- AccountsPageRoutingModule -->
<g id="node4" class="node">
<title>AccountsPageRoutingModule</title>
<polygon fill="#8dd3c7" stroke="black" points="608.26,-84.8 605.26,-88.8 584.26,-88.8 581.26,-84.8 423.74,-84.8 423.74,-48.8 608.26,-48.8 608.26,-84.8"/>
<text text-anchor="middle" x="516" y="-62.6" font-family="Times,serif" font-size="14.00">AccountsPageRoutingModule</text>
</g>
<!-- AccountsPageRoutingModule&#45;&gt;AccountsPageModule -->
<g id="edge3" class="edge">
<title>AccountsPageRoutingModule&#45;&gt;AccountsPageModule</title>
<path fill="none" stroke="black" d="M516,-84.91C516,-84.91 516,-103.79 516,-103.79"/>
<polygon fill="black" stroke="black" points="512.5,-103.79 516,-113.79 519.5,-103.79 512.5,-103.79"/>
</g>
<!-- AccountsUiFeatureModule -->
<g id="node5" class="node">
<title>AccountsUiFeatureModule</title>
<polygon fill="#8dd3c7" stroke="black" points="405.41,-84.8 402.41,-88.8 381.41,-88.8 378.41,-84.8 236.59,-84.8 236.59,-48.8 405.41,-48.8 405.41,-84.8"/>
<text text-anchor="middle" x="321" y="-62.6" font-family="Times,serif" font-size="14.00">AccountsUiFeatureModule</text>
</g>
<!-- AccountsUiFeatureModule&#45;&gt;AccountsPageModule -->
<g id="edge4" class="edge">
<title>AccountsUiFeatureModule&#45;&gt;AccountsPageModule</title>
<path fill="none" stroke="black" d="M321,-84.82C321,-102.17 321,-125.8 321,-125.8 321,-125.8 436.15,-125.8 436.15,-125.8"/>
<polygon fill="black" stroke="black" points="436.15,-129.3 446.15,-125.8 436.15,-122.3 436.15,-129.3"/>
</g>
<!-- SharedBreadcrumbsComponent -->
<g id="node6" class="node">
<title>SharedBreadcrumbsComponent</title>
<polygon fill="#8dd3c7" stroke="black" points="218.35,-84.8 215.35,-88.8 194.35,-88.8 191.35,-84.8 23.65,-84.8 23.65,-48.8 218.35,-48.8 218.35,-84.8"/>
<text text-anchor="middle" x="121" y="-62.6" font-family="Times,serif" font-size="14.00">SharedBreadcrumbsComponent</text>
</g>
<!-- SharedBreadcrumbsComponent&#45;&gt;AccountsPageModule -->
<g id="edge5" class="edge">
<title>SharedBreadcrumbsComponent&#45;&gt;AccountsPageModule</title>
<path fill="none" stroke="black" d="M121,-85.08C121,-106.12 121,-137.8 121,-137.8 121,-137.8 436.29,-137.8 436.29,-137.8"/>
<polygon fill="black" stroke="black" points="436.29,-141.3 446.29,-137.8 436.29,-134.3 436.29,-141.3"/>
</g>
</g>
</svg>
