<?xml version="1.0" encoding="UTF-8" standalone="no"?>
<!DOCTYPE svg PUBLIC "-//W3C//DTD SVG 1.1//EN"
 "http://www.w3.org/Graphics/SVG/1.1/DTD/svg11.dtd">
<!-- Generated by graphviz version 5.0.0 (20220707.1540)
 -->
<!-- Title: dependencies Pages: 1 -->
<svg width="749pt" height="247pt"
 viewBox="0.00 0.00 749.00 246.80" xmlns="http://www.w3.org/2000/svg" xmlns:xlink="http://www.w3.org/1999/xlink">
<g id="graph0" class="graph" transform="scale(1 1) rotate(0) translate(4 242.8)">
<title>dependencies</title>
<polygon fill="white" stroke="transparent" points="-4,4 -4,-242.8 745,-242.8 745,4 -4,4"/>
<text text-anchor="middle" x="370.5" y="-8.2" font-family="sans-serif" font-size="14.00">dependencies</text>
<g id="clust1" class="cluster">
<title>cluster_LayoutModule</title>
<polygon fill="none" stroke="black" stroke-dasharray="1,5" points="8,-32.8 8,-230.8 733,-230.8 733,-32.8 8,-32.8"/>
</g>
<g id="clust2" class="cluster">
<title>cluster_LayoutModule_declarations</title>
<polygon fill="none" stroke="black" points="25,-40.8 25,-92.8 719,-92.8 719,-40.8 25,-40.8"/>
</g>
<g id="clust8" class="cluster">
<title>cluster_LayoutModule_exports</title>
<polygon fill="none" stroke="black" points="16,-170.8 16,-222.8 725,-222.8 725,-170.8 16,-170.8"/>
</g>
<!-- AuthLayoutComponent -->
<g id="node1" class="node">
<title>AuthLayoutComponent</title>
<polygon fill="#ffffb3" stroke="black" points="711.49,-84.8 562.51,-84.8 562.51,-48.8 711.49,-48.8 711.49,-84.8"/>
<text text-anchor="middle" x="637" y="-62.6" font-family="Times,serif" font-size="14.00">AuthLayoutComponent</text>
</g>
<!-- LayoutModule -->
<g id="node5" class="node">
<title>LayoutModule</title>
<polygon fill="#8dd3c7" stroke="black" points="342.71,-149.8 339.71,-153.8 318.71,-153.8 315.71,-149.8 243.29,-149.8 243.29,-113.8 342.71,-113.8 342.71,-149.8"/>
<text text-anchor="middle" x="293" y="-127.6" font-family="Times,serif" font-size="14.00">LayoutModule</text>
</g>
<!-- AuthLayoutComponent&#45;&gt;LayoutModule -->
<g id="edge1" class="edge">
<title>AuthLayoutComponent&#45;&gt;LayoutModule</title>
<path fill="none" stroke="black" d="M662.58,-85.07C662.58,-103.36 662.58,-128.8 662.58,-128.8 662.58,-128.8 352.84,-128.8 352.84,-128.8"/>
<polygon fill="black" stroke="black" points="352.84,-125.3 342.84,-128.8 352.84,-132.3 352.84,-125.3"/>
</g>
<!-- HeaderLayoutComponent -->
<g id="node2" class="node">
<title>HeaderLayoutComponent</title>
<polygon fill="#ffffb3" stroke="black" points="544.9,-84.8 383.1,-84.8 383.1,-48.8 544.9,-48.8 544.9,-84.8"/>
<text text-anchor="middle" x="464" y="-62.6" font-family="Times,serif" font-size="14.00">HeaderLayoutComponent</text>
</g>
<!-- HeaderLayoutComponent&#45;&gt;LayoutModule -->
<g id="edge2" class="edge">
<title>HeaderLayoutComponent&#45;&gt;LayoutModule</title>
<path fill="none" stroke="black" d="M490.9,-84.81C490.9,-100.85 490.9,-121.8 490.9,-121.8 490.9,-121.8 352.68,-121.8 352.68,-121.8"/>
<polygon fill="black" stroke="black" points="352.68,-118.3 342.68,-121.8 352.68,-125.3 352.68,-118.3"/>
</g>
<!-- MainLayoutComponent -->
<g id="node3" class="node">
<title>MainLayoutComponent</title>
<polygon fill="#ffffb3" stroke="black" points="365.04,-84.8 214.96,-84.8 214.96,-48.8 365.04,-48.8 365.04,-84.8"/>
<text text-anchor="middle" x="290" y="-62.6" font-family="Times,serif" font-size="14.00">MainLayoutComponent</text>
</g>
<!-- MainLayoutComponent&#45;&gt;LayoutModule -->
<g id="edge3" class="edge">
<title>MainLayoutComponent&#45;&gt;LayoutModule</title>
<path fill="none" stroke="black" d="M293,-84.91C293,-84.91 293,-103.79 293,-103.79"/>
<polygon fill="black" stroke="black" points="289.5,-103.79 293,-113.79 296.5,-103.79 289.5,-103.79"/>
</g>
<!-- SidebarLayoutComponent -->
<g id="node4" class="node">
<title>SidebarLayoutComponent</title>
<polygon fill="#ffffb3" stroke="black" points="196.75,-84.8 33.25,-84.8 33.25,-48.8 196.75,-48.8 196.75,-84.8"/>
<text text-anchor="middle" x="115" y="-62.6" font-family="Times,serif" font-size="14.00">SidebarLayoutComponent</text>
</g>
<!-- SidebarLayoutComponent&#45;&gt;LayoutModule -->
<g id="edge4" class="edge">
<title>SidebarLayoutComponent&#45;&gt;LayoutModule</title>
<path fill="none" stroke="black" d="M138.79,-84.82C138.79,-102.17 138.79,-125.8 138.79,-125.8 138.79,-125.8 233.36,-125.8 233.36,-125.8"/>
<polygon fill="black" stroke="black" points="233.36,-129.3 243.36,-125.8 233.36,-122.3 233.36,-129.3"/>
</g>
<!-- AuthLayoutComponent  -->
<g id="node6" class="node">
<title>AuthLayoutComponent </title>
<polygon fill="#fb8072" stroke="black" points="717.49,-214.8 564.51,-214.8 564.51,-178.8 717.49,-178.8 717.49,-214.8"/>
<text text-anchor="middle" x="641" y="-192.6" font-family="Times,serif" font-size="14.00">AuthLayoutComponent </text>
</g>
<!-- LayoutModule&#45;&gt;AuthLayoutComponent  -->
<g id="edge5" class="edge">
<title>LayoutModule&#45;&gt;AuthLayoutComponent </title>
<path fill="none" stroke="black" stroke-dasharray="5,2" d="M342.75,-135.8C432.82,-135.8 613.67,-135.8 613.67,-135.8 613.67,-135.8 613.67,-168.5 613.67,-168.5"/>
<polygon fill="black" stroke="black" points="610.17,-168.5 613.67,-178.5 617.17,-168.5 610.17,-168.5"/>
</g>
<!-- HeaderLayoutComponent  -->
<g id="node7" class="node">
<title>HeaderLayoutComponent </title>
<polygon fill="#fb8072" stroke="black" points="546.4,-214.8 381.6,-214.8 381.6,-178.8 546.4,-178.8 546.4,-214.8"/>
<text text-anchor="middle" x="464" y="-192.6" font-family="Times,serif" font-size="14.00">HeaderLayoutComponent </text>
</g>
<!-- LayoutModule&#45;&gt;HeaderLayoutComponent  -->
<g id="edge6" class="edge">
<title>LayoutModule&#45;&gt;HeaderLayoutComponent </title>
<path fill="none" stroke="black" stroke-dasharray="5,2" d="M342.99,-142.8C384.61,-142.8 437.1,-142.8 437.1,-142.8 437.1,-142.8 437.1,-168.52 437.1,-168.52"/>
<polygon fill="black" stroke="black" points="433.6,-168.52 437.1,-178.52 440.6,-168.52 433.6,-168.52"/>
</g>
<!-- MainLayoutComponent  -->
<g id="node8" class="node">
<title>MainLayoutComponent </title>
<polygon fill="#fb8072" stroke="black" points="364.04,-214.8 209.96,-214.8 209.96,-178.8 364.04,-178.8 364.04,-214.8"/>
<text text-anchor="middle" x="287" y="-192.6" font-family="Times,serif" font-size="14.00">MainLayoutComponent </text>
</g>
<!-- LayoutModule&#45;&gt;MainLayoutComponent  -->
<g id="edge7" class="edge">
<title>LayoutModule&#45;&gt;MainLayoutComponent </title>
<path fill="none" stroke="black" stroke-dasharray="5,2" d="M293,-149.91C293,-149.91 293,-168.79 293,-168.79"/>
<polygon fill="black" stroke="black" points="289.5,-168.79 293,-178.79 296.5,-168.79 289.5,-168.79"/>
</g>
<!-- SidebarLayoutComponent  -->
<g id="node9" class="node">
<title>SidebarLayoutComponent </title>
<polygon fill="#fb8072" stroke="black" points="191.75,-214.8 24.25,-214.8 24.25,-178.8 191.75,-178.8 191.75,-214.8"/>
<text text-anchor="middle" x="108" y="-192.6" font-family="Times,serif" font-size="14.00">SidebarLayoutComponent </text>
</g>
<!-- LayoutModule&#45;&gt;SidebarLayoutComponent  -->
<g id="edge8" class="edge">
<title>LayoutModule&#45;&gt;SidebarLayoutComponent </title>
<path fill="none" stroke="black" stroke-dasharray="5,2" d="M243.14,-137.8C181.88,-137.8 85.96,-137.8 85.96,-137.8 85.96,-137.8 85.96,-168.78 85.96,-168.78"/>
<polygon fill="black" stroke="black" points="82.46,-168.78 85.96,-178.78 89.46,-168.78 82.46,-168.78"/>
</g>
</g>
</svg>
