<?xml version="1.0" encoding="UTF-8" standalone="no"?>
<!DOCTYPE svg PUBLIC "-//W3C//DTD SVG 1.1//EN"
 "http://www.w3.org/Graphics/SVG/1.1/DTD/svg11.dtd">
<!-- Generated by graphviz version 5.0.0 (20220707.1540)
 -->
<!-- Title: dependencies Pages: 1 -->
<svg width="1164pt" height="174pt"
 viewBox="0.00 0.00 1164.00 173.80" xmlns="http://www.w3.org/2000/svg" xmlns:xlink="http://www.w3.org/1999/xlink">
<g id="graph0" class="graph" transform="scale(1 1) rotate(0) translate(4 169.8)">
<title>dependencies</title>
<polygon fill="white" stroke="transparent" points="-4,4 -4,-169.8 1160,-169.8 1160,4 -4,4"/>
<text text-anchor="middle" x="578" y="-8.2" font-family="sans-serif" font-size="14.00">dependencies</text>
<g id="clust1" class="cluster">
<title>cluster_CategoriesPageModule</title>
<polygon fill="none" stroke="black" stroke-dasharray="1,5" points="8,-32.8 8,-157.8 1148,-157.8 1148,-32.8 8,-32.8"/>
</g>
<g id="clust5" class="cluster">
<title>cluster_CategoriesPageModule_imports</title>
<polygon fill="none" stroke="black" points="526,-40.8 526,-92.8 1140,-92.8 1140,-40.8 526,-40.8"/>
</g>
<g id="clust2" class="cluster">
<title>cluster_CategoriesPageModule_declarations</title>
<polygon fill="none" stroke="black" points="16,-40.8 16,-92.8 518,-92.8 518,-40.8 16,-40.8"/>
</g>
<!-- CategoriesPageFormLayoutComponent -->
<g id="node1" class="node">
<title>CategoriesPageFormLayoutComponent</title>
<polygon fill="#ffffb3" stroke="black" points="510.41,-84.8 271.59,-84.8 271.59,-48.8 510.41,-48.8 510.41,-84.8"/>
<text text-anchor="middle" x="391" y="-62.6" font-family="Times,serif" font-size="14.00">CategoriesPageFormLayoutComponent</text>
</g>
<!-- CategoriesPageModule -->
<g id="node3" class="node">
<title>CategoriesPageModule</title>
<polygon fill="#8dd3c7" stroke="black" points="704.14,-149.8 701.14,-153.8 680.14,-153.8 677.14,-149.8 557.86,-149.8 557.86,-113.8 704.14,-113.8 704.14,-149.8"/>
<text text-anchor="middle" x="631" y="-127.6" font-family="Times,serif" font-size="14.00">CategoriesPageModule</text>
</g>
<!-- CategoriesPageFormLayoutComponent&#45;&gt;CategoriesPageModule -->
<g id="edge1" class="edge">
<title>CategoriesPageFormLayoutComponent&#45;&gt;CategoriesPageModule</title>
<path fill="none" stroke="black" d="M391,-84.82C391,-102.17 391,-125.8 391,-125.8 391,-125.8 547.69,-125.8 547.69,-125.8"/>
<polygon fill="black" stroke="black" points="547.69,-129.3 557.69,-125.8 547.69,-122.3 547.69,-129.3"/>
</g>
<!-- CategoriesPageListLayoutComponent -->
<g id="node2" class="node">
<title>CategoriesPageListLayoutComponent</title>
<polygon fill="#ffffb3" stroke="black" points="253.85,-84.8 24.15,-84.8 24.15,-48.8 253.85,-48.8 253.85,-84.8"/>
<text text-anchor="middle" x="139" y="-62.6" font-family="Times,serif" font-size="14.00">CategoriesPageListLayoutComponent</text>
</g>
<!-- CategoriesPageListLayoutComponent&#45;&gt;CategoriesPageModule -->
<g id="edge2" class="edge">
<title>CategoriesPageListLayoutComponent&#45;&gt;CategoriesPageModule</title>
<path fill="none" stroke="black" d="M139,-85.08C139,-106.12 139,-137.8 139,-137.8 139,-137.8 547.61,-137.8 547.61,-137.8"/>
<polygon fill="black" stroke="black" points="547.61,-141.3 557.61,-137.8 547.61,-134.3 547.61,-141.3"/>
</g>
<!-- CategoriesPageRoutingModule -->
<g id="node4" class="node">
<title>CategoriesPageRoutingModule</title>
<polygon fill="#8dd3c7" stroke="black" points="1131.75,-84.8 1128.75,-88.8 1107.75,-88.8 1104.75,-84.8 940.25,-84.8 940.25,-48.8 1131.75,-48.8 1131.75,-84.8"/>
<text text-anchor="middle" x="1036" y="-62.6" font-family="Times,serif" font-size="14.00">CategoriesPageRoutingModule</text>
</g>
<!-- CategoriesPageRoutingModule&#45;&gt;CategoriesPageModule -->
<g id="edge3" class="edge">
<title>CategoriesPageRoutingModule&#45;&gt;CategoriesPageModule</title>
<path fill="none" stroke="black" d="M1036,-85.08C1036,-106.12 1036,-137.8 1036,-137.8 1036,-137.8 714.34,-137.8 714.34,-137.8"/>
<polygon fill="black" stroke="black" points="714.34,-134.3 704.34,-137.8 714.34,-141.3 714.34,-134.3"/>
</g>
<!-- CategoriesUiFeatureModule -->
<g id="node5" class="node">
<title>CategoriesUiFeatureModule</title>
<polygon fill="#8dd3c7" stroke="black" points="921.9,-84.8 918.9,-88.8 897.9,-88.8 894.9,-84.8 746.1,-84.8 746.1,-48.8 921.9,-48.8 921.9,-84.8"/>
<text text-anchor="middle" x="834" y="-62.6" font-family="Times,serif" font-size="14.00">CategoriesUiFeatureModule</text>
</g>
<!-- CategoriesUiFeatureModule&#45;&gt;CategoriesPageModule -->
<g id="edge4" class="edge">
<title>CategoriesUiFeatureModule&#45;&gt;CategoriesPageModule</title>
<path fill="none" stroke="black" d="M834,-84.82C834,-102.17 834,-125.8 834,-125.8 834,-125.8 714.29,-125.8 714.29,-125.8"/>
<polygon fill="black" stroke="black" points="714.29,-122.3 704.29,-125.8 714.29,-129.3 714.29,-122.3"/>
</g>
<!-- SharedBreadcrumbsComponent -->
<g id="node6" class="node">
<title>SharedBreadcrumbsComponent</title>
<polygon fill="#8dd3c7" stroke="black" points="728.35,-84.8 725.35,-88.8 704.35,-88.8 701.35,-84.8 533.65,-84.8 533.65,-48.8 728.35,-48.8 728.35,-84.8"/>
<text text-anchor="middle" x="631" y="-62.6" font-family="Times,serif" font-size="14.00">SharedBreadcrumbsComponent</text>
</g>
<!-- SharedBreadcrumbsComponent&#45;&gt;CategoriesPageModule -->
<g id="edge5" class="edge">
<title>SharedBreadcrumbsComponent&#45;&gt;CategoriesPageModule</title>
<path fill="none" stroke="black" d="M631,-84.91C631,-84.91 631,-103.79 631,-103.79"/>
<polygon fill="black" stroke="black" points="627.5,-103.79 631,-113.79 634.5,-103.79 627.5,-103.79"/>
</g>
</g>
</svg>
