<?xml version="1.0" encoding="UTF-8" standalone="no"?>
<!DOCTYPE svg PUBLIC "-//W3C//DTD SVG 1.1//EN"
 "http://www.w3.org/Graphics/SVG/1.1/DTD/svg11.dtd">
<!-- Generated by graphviz version 5.0.0 (20220707.1540)
 -->
<!-- Title: dependencies Pages: 1 -->
<svg width="697pt" height="174pt"
 viewBox="0.00 0.00 697.00 173.80" xmlns="http://www.w3.org/2000/svg" xmlns:xlink="http://www.w3.org/1999/xlink">
<g id="graph0" class="graph" transform="scale(1 1) rotate(0) translate(4 169.8)">
<title>dependencies</title>
<polygon fill="white" stroke="transparent" points="-4,4 -4,-169.8 693,-169.8 693,4 -4,4"/>
<text text-anchor="middle" x="344.5" y="-8.2" font-family="sans-serif" font-size="14.00">dependencies</text>
<g id="clust1" class="cluster">
<title>cluster_DashboardModule</title>
<polygon fill="none" stroke="black" stroke-dasharray="1,5" points="8,-32.8 8,-157.8 681,-157.8 681,-32.8 8,-32.8"/>
</g>
<g id="clust4" class="cluster">
<title>cluster_DashboardModule_imports</title>
<polygon fill="none" stroke="black" points="252,-40.8 252,-92.8 673,-92.8 673,-40.8 252,-40.8"/>
</g>
<g id="clust2" class="cluster">
<title>cluster_DashboardModule_declarations</title>
<polygon fill="none" stroke="black" points="16,-40.8 16,-92.8 244,-92.8 244,-40.8 16,-40.8"/>
</g>
<!-- DashboardMainLayoutComponent -->
<g id="node1" class="node">
<title>DashboardMainLayoutComponent</title>
<polygon fill="#ffffb3" stroke="black" points="235.69,-84.8 24.31,-84.8 24.31,-48.8 235.69,-48.8 235.69,-84.8"/>
<text text-anchor="middle" x="130" y="-62.6" font-family="Times,serif" font-size="14.00">DashboardMainLayoutComponent</text>
</g>
<!-- DashboardModule -->
<g id="node2" class="node">
<title>DashboardModule</title>
<polygon fill="#8dd3c7" stroke="black" points="417.2,-149.8 414.2,-153.8 393.2,-153.8 390.2,-149.8 296.8,-149.8 296.8,-113.8 417.2,-113.8 417.2,-149.8"/>
<text text-anchor="middle" x="357" y="-127.6" font-family="Times,serif" font-size="14.00">DashboardModule</text>
</g>
<!-- DashboardMainLayoutComponent&#45;&gt;DashboardModule -->
<g id="edge1" class="edge">
<title>DashboardMainLayoutComponent&#45;&gt;DashboardModule</title>
<path fill="none" stroke="black" d="M130,-84.91C130,-104.14 130,-131.8 130,-131.8 130,-131.8 286.76,-131.8 286.76,-131.8"/>
<polygon fill="black" stroke="black" points="286.76,-135.3 296.76,-131.8 286.76,-128.3 286.76,-135.3"/>
</g>
<!-- DashboardPageRoutingModule -->
<g id="node3" class="node">
<title>DashboardPageRoutingModule</title>
<polygon fill="#8dd3c7" stroke="black" points="665.03,-84.8 662.03,-88.8 641.03,-88.8 638.03,-84.8 472.97,-84.8 472.97,-48.8 665.03,-48.8 665.03,-84.8"/>
<text text-anchor="middle" x="569" y="-62.6" font-family="Times,serif" font-size="14.00">DashboardPageRoutingModule</text>
</g>
<!-- DashboardPageRoutingModule&#45;&gt;DashboardModule -->
<g id="edge2" class="edge">
<title>DashboardPageRoutingModule&#45;&gt;DashboardModule</title>
<path fill="none" stroke="black" d="M569,-84.91C569,-104.14 569,-131.8 569,-131.8 569,-131.8 427.18,-131.8 427.18,-131.8"/>
<polygon fill="black" stroke="black" points="427.18,-128.3 417.18,-131.8 427.18,-135.3 427.18,-128.3"/>
</g>
<!-- SharedBreadcrumbsComponent -->
<g id="node4" class="node">
<title>SharedBreadcrumbsComponent</title>
<polygon fill="#8dd3c7" stroke="black" points="454.35,-84.8 451.35,-88.8 430.35,-88.8 427.35,-84.8 259.65,-84.8 259.65,-48.8 454.35,-48.8 454.35,-84.8"/>
<text text-anchor="middle" x="357" y="-62.6" font-family="Times,serif" font-size="14.00">SharedBreadcrumbsComponent</text>
</g>
<!-- SharedBreadcrumbsComponent&#45;&gt;DashboardModule -->
<g id="edge3" class="edge">
<title>SharedBreadcrumbsComponent&#45;&gt;DashboardModule</title>
<path fill="none" stroke="black" d="M357,-84.91C357,-84.91 357,-103.79 357,-103.79"/>
<polygon fill="black" stroke="black" points="353.5,-103.79 357,-113.79 360.5,-103.79 353.5,-103.79"/>
</g>
</g>
</svg>
