<?xml version="1.0" encoding="UTF-8" standalone="no"?>
<!DOCTYPE svg PUBLIC "-//W3C//DTD SVG 1.1//EN"
 "http://www.w3.org/Graphics/SVG/1.1/DTD/svg11.dtd">
<!-- Generated by graphviz version 5.0.0 (20220707.1540)
 -->
<!-- Title: dependencies Pages: 1 -->
<svg width="952pt" height="247pt"
 viewBox="0.00 0.00 952.00 246.80" xmlns="http://www.w3.org/2000/svg" xmlns:xlink="http://www.w3.org/1999/xlink">
<g id="graph0" class="graph" transform="scale(1 1) rotate(0) translate(4 242.8)">
<title>dependencies</title>
<polygon fill="white" stroke="transparent" points="-4,4 -4,-242.8 948,-242.8 948,4 -4,4"/>
<text text-anchor="middle" x="472" y="-8.2" font-family="sans-serif" font-size="14.00">dependencies</text>
<g id="clust1" class="cluster">
<title>cluster_MovementsUiFeatureModule</title>
<polygon fill="none" stroke="black" stroke-dasharray="1,5" points="8,-32.8 8,-230.8 936,-230.8 936,-32.8 8,-32.8"/>
</g>
<g id="clust7" class="cluster">
<title>cluster_MovementsUiFeatureModule_exports</title>
<polygon fill="none" stroke="black" points="219,-170.8 219,-222.8 839,-222.8 839,-170.8 219,-170.8"/>
</g>
<g id="clust6" class="cluster">
<title>cluster_MovementsUiFeatureModule_imports</title>
<polygon fill="none" stroke="black" points="634,-40.8 634,-92.8 928,-92.8 928,-40.8 634,-40.8"/>
</g>
<g id="clust2" class="cluster">
<title>cluster_MovementsUiFeatureModule_declarations</title>
<polygon fill="none" stroke="black" points="16,-40.8 16,-92.8 626,-92.8 626,-40.8 16,-40.8"/>
</g>
<!-- MovementsAccountsComponent -->
<g id="node1" class="node">
<title>MovementsAccountsComponent</title>
<polygon fill="#ffffb3" stroke="black" points="618.31,-84.8 417.69,-84.8 417.69,-48.8 618.31,-48.8 618.31,-84.8"/>
<text text-anchor="middle" x="518" y="-62.6" font-family="Times,serif" font-size="14.00">MovementsAccountsComponent</text>
</g>
<!-- MovementsUiFeatureModule -->
<g id="node4" class="node">
<title>MovementsUiFeatureModule</title>
<polygon fill="#8dd3c7" stroke="black" points="608.64,-149.8 605.64,-153.8 584.64,-153.8 581.64,-149.8 427.36,-149.8 427.36,-113.8 608.64,-113.8 608.64,-149.8"/>
<text text-anchor="middle" x="518" y="-127.6" font-family="Times,serif" font-size="14.00">MovementsUiFeatureModule</text>
</g>
<!-- MovementsAccountsComponent&#45;&gt;MovementsUiFeatureModule -->
<g id="edge1" class="edge">
<title>MovementsAccountsComponent&#45;&gt;MovementsUiFeatureModule</title>
<path fill="none" stroke="black" d="M518,-84.91C518,-84.91 518,-103.79 518,-103.79"/>
<polygon fill="black" stroke="black" points="514.5,-103.79 518,-113.79 521.5,-103.79 514.5,-103.79"/>
</g>
<!-- MovementsFormComponent -->
<g id="node2" class="node">
<title>MovementsFormComponent</title>
<polygon fill="#ffffb3" stroke="black" points="399.77,-84.8 222.23,-84.8 222.23,-48.8 399.77,-48.8 399.77,-84.8"/>
<text text-anchor="middle" x="311" y="-62.6" font-family="Times,serif" font-size="14.00">MovementsFormComponent</text>
</g>
<!-- MovementsFormComponent&#45;&gt;MovementsUiFeatureModule -->
<g id="edge2" class="edge">
<title>MovementsFormComponent&#45;&gt;MovementsUiFeatureModule</title>
<path fill="none" stroke="black" d="M313.24,-84.83C313.24,-101.2 313.24,-122.8 313.24,-122.8 313.24,-122.8 417.3,-122.8 417.3,-122.8"/>
<polygon fill="black" stroke="black" points="417.3,-126.3 427.3,-122.8 417.3,-119.3 417.3,-126.3"/>
</g>
<!-- MovementsTableComponent -->
<g id="node3" class="node">
<title>MovementsTableComponent</title>
<polygon fill="#ffffb3" stroke="black" points="203.8,-84.8 24.2,-84.8 24.2,-48.8 203.8,-48.8 203.8,-84.8"/>
<text text-anchor="middle" x="114" y="-62.6" font-family="Times,serif" font-size="14.00">MovementsTableComponent</text>
</g>
<!-- MovementsTableComponent&#45;&gt;MovementsUiFeatureModule -->
<g id="edge3" class="edge">
<title>MovementsTableComponent&#45;&gt;MovementsUiFeatureModule</title>
<path fill="none" stroke="black" d="M114,-84.91C114,-104.14 114,-131.8 114,-131.8 114,-131.8 417.33,-131.8 417.33,-131.8"/>
<polygon fill="black" stroke="black" points="417.33,-135.3 427.33,-131.8 417.33,-128.3 417.33,-135.3"/>
</g>
<!-- MovementsAccountsComponent  -->
<g id="node7" class="node">
<title>MovementsAccountsComponent </title>
<polygon fill="#fb8072" stroke="black" points="830.81,-214.8 627.19,-214.8 627.19,-178.8 830.81,-178.8 830.81,-214.8"/>
<text text-anchor="middle" x="729" y="-192.6" font-family="Times,serif" font-size="14.00">MovementsAccountsComponent </text>
</g>
<!-- MovementsUiFeatureModule&#45;&gt;MovementsAccountsComponent  -->
<g id="edge6" class="edge">
<title>MovementsUiFeatureModule&#45;&gt;MovementsAccountsComponent </title>
<path fill="none" stroke="black" stroke-dasharray="5,2" d="M608.75,-140.8C623.81,-140.8 634.64,-140.8 634.64,-140.8 634.64,-140.8 634.64,-168.77 634.64,-168.77"/>
<polygon fill="black" stroke="black" points="631.14,-168.77 634.64,-178.77 638.14,-168.77 631.14,-168.77"/>
</g>
<!-- MovementsFormComponent  -->
<g id="node8" class="node">
<title>MovementsFormComponent </title>
<polygon fill="#fb8072" stroke="black" points="608.77,-214.8 427.23,-214.8 427.23,-178.8 608.77,-178.8 608.77,-214.8"/>
<text text-anchor="middle" x="518" y="-192.6" font-family="Times,serif" font-size="14.00">MovementsFormComponent </text>
</g>
<!-- MovementsUiFeatureModule&#45;&gt;MovementsFormComponent  -->
<g id="edge7" class="edge">
<title>MovementsUiFeatureModule&#45;&gt;MovementsFormComponent </title>
<path fill="none" stroke="black" stroke-dasharray="5,2" d="M518,-149.91C518,-149.91 518,-168.79 518,-168.79"/>
<polygon fill="black" stroke="black" points="514.5,-168.79 518,-178.79 521.5,-168.79 514.5,-168.79"/>
</g>
<!-- MovementsTableComponent  -->
<g id="node9" class="node">
<title>MovementsTableComponent </title>
<polygon fill="#fb8072" stroke="black" points="409.3,-214.8 226.7,-214.8 226.7,-178.8 409.3,-178.8 409.3,-214.8"/>
<text text-anchor="middle" x="318" y="-192.6" font-family="Times,serif" font-size="14.00">MovementsTableComponent </text>
</g>
<!-- MovementsUiFeatureModule&#45;&gt;MovementsTableComponent  -->
<g id="edge8" class="edge">
<title>MovementsUiFeatureModule&#45;&gt;MovementsTableComponent </title>
<path fill="none" stroke="black" stroke-dasharray="5,2" d="M427.31,-140.8C413.99,-140.8 404.64,-140.8 404.64,-140.8 404.64,-140.8 404.64,-168.77 404.64,-168.77"/>
<polygon fill="black" stroke="black" points="401.14,-168.77 404.64,-178.77 408.14,-168.77 401.14,-168.77"/>
</g>
<!-- CurrencyPipe -->
<g id="node5" class="node">
<title>CurrencyPipe</title>
<polygon fill="#8dd3c7" stroke="black" points="920.48,-84.8 917.48,-88.8 896.48,-88.8 893.48,-84.8 827.52,-84.8 827.52,-48.8 920.48,-48.8 920.48,-84.8"/>
<text text-anchor="middle" x="874" y="-62.6" font-family="Times,serif" font-size="14.00">CurrencyPipe</text>
</g>
<!-- CurrencyPipe&#45;&gt;MovementsUiFeatureModule -->
<g id="edge4" class="edge">
<title>CurrencyPipe&#45;&gt;MovementsUiFeatureModule</title>
<path fill="none" stroke="black" d="M875.7,-84.91C875.7,-104.14 875.7,-131.8 875.7,-131.8 875.7,-131.8 618.72,-131.8 618.72,-131.8"/>
<polygon fill="black" stroke="black" points="618.72,-128.3 608.72,-131.8 618.72,-135.3 618.72,-128.3"/>
</g>
<!-- MovementsFeatureModule -->
<g id="node6" class="node">
<title>MovementsFeatureModule</title>
<polygon fill="#8dd3c7" stroke="black" points="809.64,-84.8 806.64,-88.8 785.64,-88.8 782.64,-84.8 642.36,-84.8 642.36,-48.8 809.64,-48.8 809.64,-84.8"/>
<text text-anchor="middle" x="726" y="-62.6" font-family="Times,serif" font-size="14.00">MovementsFeatureModule</text>
</g>
<!-- MovementsFeatureModule&#45;&gt;MovementsUiFeatureModule -->
<g id="edge5" class="edge">
<title>MovementsFeatureModule&#45;&gt;MovementsUiFeatureModule</title>
<path fill="none" stroke="black" d="M726,-84.83C726,-101.2 726,-122.8 726,-122.8 726,-122.8 618.93,-122.8 618.93,-122.8"/>
<polygon fill="black" stroke="black" points="618.93,-119.3 608.93,-122.8 618.93,-126.3 618.93,-119.3"/>
</g>
</g>
</svg>
